League Mono-ExtraBold.ufo
<glyph name="exclam" format="1">
  <advance width="600"/>
  <unicode hex="0021"/>
  <outline>
    <contour>
      <point x="351" y="-11"/>
      <point x="394" y="32"/>
      <point x="394" y="87" type="curve" smooth="yes"/>
      <point x="394" y="140"/>
      <point x="351" y="183"/>
      <point x="296" y="183" type="curve" smooth="yes"/>
      <point x="241" y="183"/>
      <point x="198" y="140"/>
      <point x="198" y="87" type="curve" smooth="yes"/>
      <point x="198" y="32"/>
      <point x="241" y="-11"/>
      <point x="296" y="-11" type="curve" smooth="yes"/>
    </contour>
    <contour>
      <point x="366" y="234" type="line"/>
      <point x="390" y="700" type="line"/>
      <point x="201" y="700" type="line"/>
      <point x="225" y="234" type="line"/>
    </contour>
  </outline>
</glyph>
<glyph name="numbersign" format="1">
  <advance width="600"/>
  <unicode hex="0023"/>
  <outline>
    <contour>
      <point x="138" y="700" type="line"/>
      <point x="57" y="0" type="line"/>
      <point x="233" y="0" type="line"/>
      <point x="314" y="700" type="line"/>
    </contour>
    <contour>
      <point x="354" y="700" type="line"/>
      <point x="273" y="0" type="line"/>
      <point x="449" y="0" type="line"/>
      <point x="530" y="700" type="line"/>
    </contour>
    <contour>
      <point x="2" y="152" type="line"/>
      <point x="537" y="152" type="line"/>
      <point x="553" y="292" type="line"/>
      <point x="18" y="292" type="line"/>
    </contour>
    <contour>
      <point x="35" y="397" type="line"/>
      <point x="570" y="397" type="line"/>
      <point x="586" y="537" type="line"/>
      <point x="51" y="537" type="line"/>
    </contour>
  </outline>
</glyph>
<glyph name="dollar" format="1">
  <advance width="600"/>
  <unicode hex="0024"/>
  <outline>
    <contour>
      <point x="235" y="-130" type="line"/>
      <point x="368" y="-130" type="line"/>
      <point x="368" y="800" type="line"/>
      <point x="235" y="800" type="line"/>
    </contour>
    <contour>
      <point x="240" y="465"/>
      <point x="201" y="482"/>
      <point x="201" y="526" type="curve" smooth="yes"/>
      <point x="201" y="559"/>
      <point x="247" y="566"/>
      <point x="304" y="566" type="curve" smooth="yes"/>
      <point x="368" y="566"/>
      <point x="415" y="550"/>
      <point x="438" y="497" type="curve"/>
      <point x="568" y="571" type="line"/>
      <point x="523" y="661"/>
      <point x="417" y="706"/>
      <point x="314" y="706" type="curve" smooth="yes"/>
      <point x="206" y="706"/>
      <point x="40" y="681"/>
      <point x="40" y="530" type="curve" smooth="yes"/>
      <point x="40" y="363"/>
      <point x="223" y="302"/>
      <point x="293" y="278" type="curve" smooth="yes"/>
      <point x="359" y="255"/>
      <point x="404" y="246"/>
      <point x="404" y="187" type="curve" smooth="yes"/>
      <point x="404" y="135"/>
      <point x="373" y="129"/>
      <point x="293" y="129" type="curve" smooth="yes"/>
      <point x="209" y="129"/>
      <point x="167" y="148"/>
      <point x="144" y="198" type="curve"/>
      <point x="14" y="124" type="line"/>
      <point x="59" y="34"/>
      <point x="170" y="-11"/>
      <point x="293" y="-11" type="curve" smooth="yes"/>
      <point x="414" y="-11"/>
      <point x="578" y="24"/>
      <point x="578" y="187" type="curve" smooth="yes"/>
      <point x="578" y="339"/>
      <point x="377" y="416"/>
      <point x="293" y="446" type="curve" smooth="yes"/>
    </contour>
  </outline>
</glyph>
<glyph name="percent" format="1">
  <advance width="600"/>
  <unicode hex="0025"/>
  <outline>
    <contour>
      <point x="404" y="700" type="line"/>
      <point x="31" y="0" type="line"/>
      <point x="202" y="0" type="line"/>
      <point x="575" y="700" type="line"/>
    </contour>
    <contour>
      <point x="222" y="422"/>
      <point x="285" y="460"/>
      <point x="285" y="557" type="curve" smooth="yes"/>
      <point x="285" y="653"/>
      <point x="222" y="691"/>
      <point x="151" y="691" type="curve" smooth="yes"/>
      <point x="79" y="691"/>
      <point x="17" y="653"/>
      <point x="17" y="557" type="curve" smooth="yes"/>
      <point x="17" y="460"/>
      <point x="79" y="422"/>
      <point x="151" y="422" type="curve" smooth="yes"/>
    </contour>
    <contour>
      <point x="136" y="515"/>
      <point x="123" y="525"/>
      <point x="123" y="557" type="curve" smooth="yes"/>
      <point x="123" y="588"/>
      <point x="136" y="598"/>
      <point x="151" y="598" type="curve" smooth="yes"/>
      <point x="166" y="598"/>
      <point x="178" y="588"/>
      <point x="178" y="557" type="curve" smooth="yes"/>
      <point x="178" y="525"/>
      <point x="166" y="515"/>
      <point x="151" y="515" type="curve" smooth="yes"/>
    </contour>
    <contour>
      <point x="533" y="2"/>
      <point x="595" y="40"/>
      <point x="595" y="137" type="curve" smooth="yes"/>
      <point x="595" y="233"/>
      <point x="533" y="271"/>
      <point x="461" y="271" type="curve" smooth="yes"/>
      <point x="390" y="271"/>
      <point x="327" y="233"/>
      <point x="327" y="137" type="curve" smooth="yes"/>
      <point x="327" y="40"/>
      <point x="390" y="2"/>
      <point x="461" y="2" type="curve" smooth="yes"/>
    </contour>
    <contour>
      <point x="446" y="95"/>
      <point x="434" y="105"/>
      <point x="434" y="137" type="curve" smooth="yes"/>
      <point x="434" y="168"/>
      <point x="446" y="178"/>
      <point x="461" y="178" type="curve" smooth="yes"/>
      <point x="476" y="178"/>
      <point x="489" y="168"/>
      <point x="489" y="137" type="curve" smooth="yes"/>
      <point x="489" y="105"/>
      <point x="476" y="95"/>
      <point x="461" y="95" type="curve" smooth="yes"/>
    </contour>
  </outline>
</glyph>
<glyph name="ampersand" format="1">
  <advance width="600"/>
  <unicode hex="0026"/>
  <outline>
    <contour>
      <point x="340" y="-8"/>
      <point x="398" y="14"/>
      <point x="417" y="29" type="curve"/>
      <point x="433" y="0" type="line"/>
      <point x="569" y="0" type="line"/>
      <point x="511" y="92" type="line"/>
      <point x="554" y="143"/>
      <point x="573" y="178"/>
      <point x="573" y="290" type="curve" smooth="yes"/>
      <point x="573" y="293" type="line"/>
      <point x="429" y="293" type="line"/>
      <point x="429" y="290" type="line" smooth="yes"/>
      <point x="429" y="284"/>
      <point x="433" y="254"/>
      <point x="423" y="238" type="curve"/>
      <point x="337" y="368" type="line"/>
      <point x="399" y="419"/>
      <point x="449" y="482"/>
      <point x="449" y="569" type="curve" smooth="yes"/>
      <point x="449" y="656"/>
      <point x="377" y="706"/>
      <point x="274" y="706" type="curve" smooth="yes"/>
      <point x="171" y="706"/>
      <point x="97" y="651"/>
      <point x="95" y="565" type="curve" smooth="yes"/>
      <point x="93" y="510"/>
      <point x="111" y="466"/>
      <point x="155" y="402" type="curve"/>
      <point x="74" y="347"/>
      <point x="30" y="266"/>
      <point x="30" y="185" type="curve" smooth="yes"/>
      <point x="30" y="68"/>
      <point x="114" y="-8"/>
      <point x="274" y="-8" type="curve" smooth="yes"/>
    </contour>
    <contour>
      <point x="225" y="127"/>
      <point x="188" y="156"/>
      <point x="188" y="194" type="curve" smooth="yes"/>
      <point x="188" y="231"/>
      <point x="205" y="264"/>
      <point x="239" y="289" type="curve"/>
      <point x="334" y="141" type="line"/>
      <point x="328" y="136"/>
      <point x="310" y="127"/>
      <point x="269" y="127" type="curve" smooth="yes"/>
    </contour>
    <contour>
      <point x="247" y="506"/>
      <point x="234" y="528"/>
      <point x="234" y="555" type="curve" smooth="yes"/>
      <point x="234" y="579"/>
      <point x="248" y="593"/>
      <point x="273" y="593" type="curve" smooth="yes"/>
      <point x="298" y="593"/>
      <point x="309" y="578"/>
      <point x="309" y="555" type="curve" smooth="yes"/>
      <point x="309" y="529"/>
      <point x="289" y="495"/>
      <point x="267" y="479" type="curve"/>
    </contour>
  </outline>
</glyph>
<glyph name="quotesingle" format="1">
  <advance width="600"/>
  <unicode hex="0027"/>
  <outline>
    <contour>
      <point x="247" y="494" type="line"/>
      <point x="352" y="494" type="line"/>
      <point x="390" y="757" type="line"/>
      <point x="209" y="757" type="line"/>
    </contour>
  </outline>
</glyph>
<glyph name="parenleft" format="1">
  <advance width="600"/>
  <unicode hex="0028"/>
  <outline>
    <contour>
      <point x="514" y="-164" type="line"/>
      <point x="508" y="-155"/>
      <point x="361" y="-15"/>
      <point x="361" y="294" type="curve" smooth="yes"/>
      <point x="361" y="602"/>
      <point x="508" y="743"/>
      <point x="514" y="751" type="curve"/>
      <point x="362" y="824" type="line"/>
      <point x="356" y="815"/>
      <point x="182" y="653"/>
      <point x="182" y="294" type="curve" smooth="yes"/>
      <point x="182" y="-66"/>
      <point x="356" y="-228"/>
      <point x="362" y="-237" type="curve"/>
    </contour>
  </outline>
</glyph>
<glyph name="asterisk" format="1">
  <advance width="600"/>
  <unicode hex="002A"/>
  <outline>
    <contour>
      <point x="436" y="559" type="line"/>
      <point x="352" y="665" type="line"/>
      <point x="281" y="608" type="line"/>
      <point x="348" y="498" type="line"/>
    </contour>
    <contour>
      <point x="317" y="608" type="line"/>
      <point x="247" y="665" type="line"/>
      <point x="162" y="559" type="line"/>
      <point x="250" y="498" type="line"/>
    </contour>
    <contour>
      <point x="299" y="706" type="line"/>
      <point x="168" y="749" type="line"/>
      <point x="132" y="645" type="line"/>
      <point x="281" y="608" type="line"/>
    </contour>
    <contour>
      <point x="327" y="608"/>
      <point x="351" y="628"/>
      <point x="351" y="653" type="curve" smooth="yes"/>
      <point x="351" y="675"/>
      <point x="327" y="702"/>
      <point x="299" y="702" type="curve" smooth="yes"/>
      <point x="270" y="702"/>
      <point x="246" y="675"/>
      <point x="246" y="653" type="curve" smooth="yes"/>
      <point x="246" y="628"/>
      <point x="270" y="608"/>
      <point x="299" y="608" type="curve" smooth="yes"/>
    </contour>
    <contour>
      <point x="352" y="665" type="line"/>
      <point x="359" y="800" type="line"/>
      <point x="240" y="800" type="line"/>
      <point x="247" y="665" type="line"/>
    </contour>
    <contour>
      <point x="466" y="645" type="line"/>
      <point x="430" y="749" type="line"/>
      <point x="299" y="706" type="line"/>
      <point x="317" y="608" type="line"/>
    </contour>
  </outline>
</glyph>
<glyph name="plus" format="1">
  <advance width="600"/>
  <unicode hex="002B"/>
  <outline>
    <contour>
      <point x="95" y="234" type="line"/>
      <point x="510" y="234" type="line"/>
      <point x="510" y="374" type="line"/>
      <point x="95" y="374" type="line"/>
    </contour>
    <contour>
      <point x="373" y="96" type="line"/>
      <point x="373" y="511" type="line"/>
      <point x="233" y="511" type="line"/>
      <point x="233" y="96" type="line"/>
    </contour>
  </outline>
</glyph>
<glyph name="comma" format="1">
  <advance width="600"/>
  <unicode hex="002C"/>
  <outline>
    <contour>
      <point x="316" y="-14"/>
      <point x="362" y="34"/>
      <point x="362" y="95" type="curve" smooth="yes"/>
      <point x="362" y="152"/>
      <point x="316" y="200"/>
      <point x="256" y="200" type="curve" smooth="yes"/>
      <point x="196" y="200"/>
      <point x="150" y="152"/>
      <point x="150" y="95" type="curve" smooth="yes"/>
      <point x="150" y="34"/>
      <point x="196" y="-14"/>
      <point x="256" y="-14" type="curve" smooth="yes"/>
    </contour>
    <contour>
      <point x="171" y="-134" type="line"/>
      <point x="260" y="-161" type="line"/>
      <point x="346" y="36" type="line"/>
      <point x="224" y="25" type="line"/>
    </contour>
  </outline>
</glyph>
<glyph name="hyphen" format="1">
  <advance width="600"/>
  <unicode hex="002D"/>
  <outline>
    <contour>
      <point x="134" y="234" type="line"/>
      <point x="460" y="234" type="line"/>
      <point x="460" y="374" type="line"/>
      <point x="134" y="374" type="line"/>
    </contour>
  </outline>
</glyph>
<glyph name="period" format="1">
  <advance width="600"/>
  <unicode hex="002E"/>
  <outline>
    <contour>
      <point x="365" y="-11"/>
      <point x="420" y="44"/>
      <point x="420" y="113" type="curve" smooth="yes"/>
      <point x="420" y="182"/>
      <point x="365" y="237"/>
      <point x="296" y="237" type="curve" smooth="yes"/>
      <point x="227" y="237"/>
      <point x="172" y="182"/>
      <point x="172" y="113" type="curve" smooth="yes"/>
      <point x="172" y="44"/>
      <point x="227" y="-11"/>
      <point x="296" y="-11" type="curve" smooth="yes"/>
    </contour>
  </outline>
</glyph>
<glyph name="slash" format="1">
  <advance width="600"/>
  <unicode hex="002F"/>
  <outline>
    <contour>
      <point x="343" y="800" type="line"/>
      <point x="94" y="-142" type="line"/>
      <point x="260" y="-142" type="line"/>
      <point x="509" y="800" type="line"/>
    </contour>
  </outline>
</glyph>
<glyph name="zero" format="1">
  <advance width="600"/>
  <unicode hex="0030"/>
  <outline>
    <contour>
      <point x="454" y="-11"/>
      <point x="583" y="60"/>
      <point x="583" y="348" type="curve" smooth="yes"/>
      <point x="583" y="635"/>
      <point x="454" y="706"/>
      <point x="302" y="706" type="curve" smooth="yes"/>
      <point x="149" y="706"/>
      <point x="20" y="635"/>
      <point x="20" y="348" type="curve" smooth="yes"/>
      <point x="20" y="60"/>
      <point x="149" y="-11"/>
      <point x="302" y="-11" type="curve" smooth="yes"/>
    </contour>
    <contour>
      <point x="239" y="129"/>
      <point x="204" y="153"/>
      <point x="204" y="348" type="curve" smooth="yes"/>
      <point x="204" y="542"/>
      <point x="239" y="566"/>
      <point x="302" y="566" type="curve" smooth="yes"/>
      <point x="364" y="566"/>
      <point x="399" y="542"/>
      <point x="399" y="348" type="curve" smooth="yes"/>
      <point x="399" y="153"/>
      <point x="364" y="129"/>
      <point x="302" y="129" type="curve" smooth="yes"/>
    </contour>
    <contour>
      <point x="339" y="249"/>
      <point x="372" y="255"/>
      <point x="372" y="348" type="curve" smooth="yes"/>
      <point x="372" y="440"/>
      <point x="339" y="446"/>
      <point x="302" y="446" type="curve" smooth="yes"/>
      <point x="264" y="446"/>
      <point x="231" y="440"/>
      <point x="231" y="348" type="curve" smooth="yes"/>
      <point x="231" y="255"/>
      <point x="264" y="249"/>
      <point x="302" y="249" type="curve" smooth="yes"/>
    </contour>
  </outline>
</glyph>
<glyph name="one" format="1">
  <advance width="600"/>
  <unicode hex="0031"/>
  <outline>
    <contour>
      <point x="140" y="456" type="line"/>
      <point x="226" y="511" type="line"/>
      <point x="255" y="700" type="line"/>
      <point x="70" y="589" type="line"/>
    </contour>
    <contour>
      <point x="405" y="56" type="line"/>
      <point x="405" y="700" type="line"/>
      <point x="255" y="700" type="line"/>
      <point x="226" y="511" type="line"/>
      <point x="226" y="31" type="line"/>
    </contour>
    <contour>
      <point x="102" y="0" type="line"/>
      <point x="520" y="0" type="line"/>
      <point x="520" y="139" type="line"/>
      <point x="102" y="139" type="line"/>
    </contour>
  </outline>
</glyph>
<glyph name="two" format="1">
  <advance width="600"/>
  <unicode hex="0032"/>
  <outline>
    <contour>
      <point x="327" y="139" type="line"/>
      <point x="325" y="138"/>
      <point x="364" y="167"/>
      <point x="413" y="224" type="curve" smooth="yes"/>
      <point x="494" y="320"/>
      <point x="553" y="404"/>
      <point x="553" y="505" type="curve" smooth="yes"/>
      <point x="553" y="640"/>
      <point x="454" y="706"/>
      <point x="305" y="706" type="curve" smooth="yes"/>
      <point x="193" y="706"/>
      <point x="106" y="663"/>
      <point x="50" y="556" type="curve"/>
      <point x="196" y="483" type="line"/>
      <point x="217" y="519"/>
      <point x="242" y="566"/>
      <point x="296" y="566" type="curve" smooth="yes"/>
      <point x="345" y="566"/>
      <point x="369" y="551"/>
      <point x="369" y="498" type="curve" smooth="yes"/>
      <point x="369" y="420"/>
      <point x="311" y="361"/>
      <point x="243" y="286" type="curve" smooth="yes"/>
      <point x="190" y="226"/>
      <point x="92" y="155"/>
      <point x="59" y="139" type="curve"/>
    </contour>
    <contour>
      <point x="550" y="0" type="line"/>
      <point x="550" y="139" type="line"/>
      <point x="59" y="139" type="line"/>
      <point x="59" y="0" type="line"/>
    </contour>
  </outline>
</glyph>
<glyph name="three" format="1">
  <advance width="600"/>
  <unicode hex="0033"/>
  <outline>
    <contour>
      <point x="448" y="-11"/>
      <point x="562" y="67"/>
      <point x="562" y="196" type="curve" smooth="yes"/>
      <point x="562" y="290"/>
      <point x="510" y="361"/>
      <point x="390" y="371" type="curve" smooth="yes"/>
      <point x="386" y="371"/>
      <point x="256" y="284"/>
      <point x="262" y="284" type="curve" smooth="yes"/>
      <point x="372" y="284"/>
      <point x="391" y="239"/>
      <point x="391" y="202" type="curve" smooth="yes"/>
      <point x="391" y="156"/>
      <point x="360" y="129"/>
      <point x="304" y="129" type="curve" smooth="yes"/>
      <point x="236" y="129"/>
      <point x="196" y="162"/>
      <point x="174" y="212" type="curve"/>
      <point x="37" y="139" type="line"/>
      <point x="75" y="63"/>
      <point x="170" y="-11"/>
      <point x="308" y="-11" type="curve" smooth="yes"/>
    </contour>
    <contour>
      <point x="401" y="284" type="line"/>
      <point x="401" y="424" type="line"/>
      <point x="220" y="424" type="line"/>
      <point x="220" y="284" type="line"/>
    </contour>
    <contour>
      <point x="501" y="371"/>
      <point x="548" y="433"/>
      <point x="548" y="520" type="curve" smooth="yes"/>
      <point x="548" y="639"/>
      <point x="434" y="706"/>
      <point x="303" y="706" type="curve" smooth="yes"/>
      <point x="174" y="706"/>
      <point x="87" y="630"/>
      <point x="50" y="556" type="curve"/>
      <point x="187" y="483" type="line"/>
      <point x="208" y="531"/>
      <point x="244" y="566"/>
      <point x="303" y="566" type="curve" smooth="yes"/>
      <point x="350" y="566"/>
      <point x="377" y="545"/>
      <point x="377" y="500" type="curve" smooth="yes"/>
      <point x="377" y="467"/>
      <point x="372" y="424"/>
      <point x="262" y="424" type="curve" smooth="yes"/>
      <point x="256" y="424"/>
      <point x="380" y="336"/>
      <point x="384" y="337" type="curve" smooth="yes"/>
    </contour>
  </outline>
</glyph>
<glyph name="four" format="1">
  <advance width="600"/>
  <unicode hex="0034"/>
  <outline>
    <contour>
      <point x="209" y="263" type="line"/>
      <point x="325" y="623" type="line"/>
      <point x="203" y="700" type="line"/>
      <point x="47" y="263" type="line"/>
    </contour>
    <contour>
      <point x="388" y="561" type="line"/>
      <point x="388" y="700" type="line"/>
      <point x="203" y="700" type="line"/>
      <point x="203" y="561" type="line"/>
    </contour>
    <contour>
      <point x="469" y="0" type="line"/>
      <point x="469" y="700" type="line"/>
      <point x="298" y="700" type="line"/>
      <point x="290" y="0" type="line"/>
    </contour>
    <contour>
      <point x="560" y="123" type="line"/>
      <point x="560" y="263" type="line"/>
      <point x="47" y="263" type="line"/>
      <point x="47" y="123" type="line"/>
    </contour>
  </outline>
</glyph>
<glyph name="five" format="1">
  <advance width="600"/>
  <unicode hex="0035"/>
  <outline>
    <contour>
      <point x="431" y="-11"/>
      <point x="546" y="51"/>
      <point x="546" y="231" type="curve" smooth="yes"/>
      <point x="546" y="398"/>
      <point x="450" y="470"/>
      <point x="313" y="470" type="curve" smooth="yes"/>
      <point x="204" y="470"/>
      <point x="137" y="419"/>
      <point x="109" y="329" type="curve"/>
      <point x="191" y="263" type="line"/>
      <point x="203" y="304"/>
      <point x="235" y="320"/>
      <point x="293" y="320" type="curve" smooth="yes"/>
      <point x="346" y="320"/>
      <point x="376" y="307"/>
      <point x="376" y="238" type="curve" smooth="yes"/>
      <point x="376" y="165"/>
      <point x="343" y="129"/>
      <point x="293" y="129" type="curve" smooth="yes"/>
      <point x="223" y="129"/>
      <point x="188" y="177"/>
      <point x="181" y="202" type="curve"/>
      <point x="35" y="119" type="line"/>
      <point x="89" y="22"/>
      <point x="162" y="-11"/>
      <point x="294" y="-11" type="curve" smooth="yes"/>
    </contour>
    <contour>
      <point x="242" y="673" type="line"/>
      <point x="89" y="700" type="line"/>
      <point x="53" y="321" type="line"/>
      <point x="191" y="263" type="line"/>
    </contour>
    <contour>
      <point x="515" y="561" type="line"/>
      <point x="515" y="700" type="line"/>
      <point x="89" y="700" type="line"/>
      <point x="118" y="561" type="line"/>
    </contour>
  </outline>
</glyph>
<glyph name="six" format="1">
  <advance width="600"/>
  <unicode hex="0036"/>
  <outline>
    <contour>
      <point x="523" y="665" type="line"/>
      <point x="508" y="680"/>
      <point x="459" y="709"/>
      <point x="347" y="706" type="curve" smooth="yes"/>
      <point x="211" y="704"/>
      <point x="41" y="619"/>
      <point x="41" y="328" type="curve" smooth="yes"/>
      <point x="41" y="75"/>
      <point x="129" y="-11"/>
      <point x="305" y="-11" type="curve"/>
      <point x="305" y="129" type="line"/>
      <point x="255" y="129"/>
      <point x="211" y="139"/>
      <point x="211" y="328" type="curve" smooth="yes"/>
      <point x="211" y="526"/>
      <point x="266" y="562"/>
      <point x="347" y="566" type="curve" smooth="yes"/>
      <point x="415" y="569"/>
      <point x="443" y="552"/>
      <point x="451" y="545" type="curve"/>
    </contour>
    <contour>
      <point x="305" y="-11" type="line"/>
      <point x="471" y="-11"/>
      <point x="556" y="84"/>
      <point x="556" y="235" type="curve" smooth="yes"/>
      <point x="556" y="388"/>
      <point x="494" y="474"/>
      <point x="329" y="474" type="curve" smooth="yes"/>
      <point x="238" y="474"/>
      <point x="170" y="423"/>
      <point x="122" y="333" type="curve"/>
      <point x="209" y="253" type="line"/>
      <point x="219" y="274"/>
      <point x="249" y="320"/>
      <point x="313" y="320" type="curve" smooth="yes"/>
      <point x="353" y="320"/>
      <point x="386" y="324"/>
      <point x="386" y="235" type="curve" smooth="yes"/>
      <point x="386" y="148"/>
      <point x="345" y="129"/>
      <point x="305" y="129" type="curve"/>
    </contour>
  </outline>
</glyph>
<glyph name="seven" format="1">
  <advance width="600"/>
  <unicode hex="0037"/>
  <outline>
    <contour>
      <point x="349" y="561" type="line"/>
      <point x="91" y="0" type="line"/>
      <point x="275" y="0" type="line"/>
      <point x="529" y="561" type="line"/>
    </contour>
    <contour>
      <point x="529" y="700" type="line"/>
      <point x="65" y="700" type="line"/>
      <point x="65" y="561" type="line"/>
      <point x="529" y="561" type="line"/>
    </contour>
  </outline>
</glyph>
<glyph name="eight" format="1">
  <advance width="600"/>
  <unicode hex="0038"/>
  <outline>
    <contour>
      <point x="468" y="-11"/>
      <point x="566" y="72"/>
      <point x="566" y="201" type="curve" smooth="yes"/>
      <point x="566" y="372"/>
      <point x="419" y="410"/>
      <point x="303" y="410" type="curve" smooth="yes"/>
      <point x="186" y="410"/>
      <point x="39" y="372"/>
      <point x="39" y="201" type="curve" smooth="yes"/>
      <point x="39" y="72"/>
      <point x="137" y="-11"/>
      <point x="303" y="-11" type="curve" smooth="yes"/>
    </contour>
    <contour>
      <point x="263" y="129"/>
      <point x="220" y="138"/>
      <point x="220" y="215" type="curve" smooth="yes"/>
      <point x="220" y="291"/>
      <point x="273" y="303"/>
      <point x="303" y="303" type="curve" smooth="yes"/>
      <point x="332" y="303"/>
      <point x="385" y="291"/>
      <point x="385" y="215" type="curve" smooth="yes"/>
      <point x="385" y="138"/>
      <point x="342" y="129"/>
      <point x="303" y="129" type="curve" smooth="yes"/>
    </contour>
    <contour>
      <point x="409" y="327"/>
      <point x="536" y="393"/>
      <point x="536" y="516" type="curve" smooth="yes"/>
      <point x="536" y="638"/>
      <point x="448" y="707"/>
      <point x="303" y="707" type="curve" smooth="yes"/>
      <point x="157" y="707"/>
      <point x="69" y="638"/>
      <point x="69" y="516" type="curve" smooth="yes"/>
      <point x="69" y="393"/>
      <point x="196" y="327"/>
      <point x="303" y="327" type="curve" smooth="yes"/>
    </contour>
    <contour>
      <point x="273" y="434"/>
      <point x="237" y="453"/>
      <point x="237" y="507" type="curve" smooth="yes"/>
      <point x="237" y="560"/>
      <point x="273" y="567"/>
      <point x="303" y="567" type="curve" smooth="yes"/>
      <point x="332" y="567"/>
      <point x="368" y="560"/>
      <point x="368" y="507" type="curve" smooth="yes"/>
      <point x="368" y="453"/>
      <point x="332" y="434"/>
      <point x="303" y="434" type="curve" smooth="yes"/>
    </contour>
  </outline>
</glyph>
<glyph name="nine" format="1">
  <advance width="600"/>
  <unicode hex="0039"/>
  <outline>
    <contour>
      <point x="292" y="707" type="line"/>
      <point x="126" y="707"/>
      <point x="41" y="616"/>
      <point x="41" y="465" type="curve" smooth="yes"/>
      <point x="41" y="312"/>
      <point x="114" y="222"/>
      <point x="280" y="222" type="curve" smooth="yes"/>
      <point x="371" y="222"/>
      <point x="450" y="273"/>
      <point x="498" y="363" type="curve"/>
      <point x="402" y="440" type="line"/>
      <point x="372" y="378"/>
      <point x="330" y="362"/>
      <point x="294" y="362" type="curve" smooth="yes"/>
      <point x="267" y="362"/>
      <point x="225" y="377"/>
      <point x="225" y="464" type="curve" smooth="yes"/>
      <point x="225" y="551"/>
      <point x="238" y="567"/>
      <point x="292" y="567" type="curve"/>
    </contour>
    <contour>
      <point x="90" y="0" type="line"/>
      <point x="102" y="0"/>
      <point x="229" y="-3"/>
      <point x="307" y="21" type="curve" smooth="yes"/>
      <point x="428" y="58"/>
      <point x="556" y="122"/>
      <point x="556" y="398" type="curve" smooth="yes"/>
      <point x="556" y="631"/>
      <point x="468" y="707"/>
      <point x="292" y="707" type="curve"/>
      <point x="292" y="567" type="line"/>
      <point x="342" y="567"/>
      <point x="372" y="567"/>
      <point x="372" y="398" type="curve" smooth="yes"/>
      <point x="372" y="229"/>
      <point x="334" y="187"/>
      <point x="297" y="169" type="curve" smooth="yes"/>
      <point x="233" y="138"/>
      <point x="136" y="138"/>
      <point x="90" y="138" type="curve"/>
    </contour>
  </outline>
</glyph>
<glyph name="less" format="1">
  <advance width="600"/>
  <unicode hex="003C"/>
  <outline>
    <contour>
      <point x="233" y="213" type="line"/>
      <point x="520" y="456" type="line"/>
      <point x="448" y="562" type="line"/>
      <point x="79" y="361" type="line"/>
    </contour>
    <contour>
      <point x="79" y="216" type="line"/>
      <point x="216" y="216" type="line"/>
      <point x="216" y="361" type="line"/>
      <point x="79" y="361" type="line"/>
    </contour>
    <contour>
      <point x="448" y="15" type="line"/>
      <point x="520" y="121" type="line"/>
      <point x="233" y="364" type="line"/>
      <point x="79" y="216" type="line"/>
    </contour>
  </outline>
</glyph>
<glyph name="equal" format="1">
  <advance width="600"/>
  <unicode hex="003D"/>
  <outline>
    <contour>
      <point x="91" y="142" type="line"/>
      <point x="506" y="142" type="line"/>
      <point x="506" y="282" type="line"/>
      <point x="91" y="282" type="line"/>
    </contour>
    <contour>
      <point x="91" y="326" type="line"/>
      <point x="506" y="326" type="line"/>
      <point x="506" y="466" type="line"/>
      <point x="91" y="466" type="line"/>
    </contour>
  </outline>
</glyph>
<glyph name="question" format="1">
  <advance width="600"/>
  <unicode hex="003F"/>
  <outline>
    <contour>
      <point x="361" y="234" type="line"/>
      <point x="361" y="243" type="line"/>
      <point x="361" y="340"/>
      <point x="564" y="374"/>
      <point x="562" y="520" type="curve" smooth="yes"/>
      <point x="560" y="653"/>
      <point x="434" y="706"/>
      <point x="303" y="706" type="curve" smooth="yes"/>
      <point x="160" y="706"/>
      <point x="80" y="645"/>
      <point x="43" y="571" type="curve"/>
      <point x="173" y="483" type="line"/>
      <point x="194" y="531"/>
      <point x="244" y="566"/>
      <point x="303" y="566" type="curve" smooth="yes"/>
      <point x="379" y="566"/>
      <point x="376" y="537"/>
      <point x="377" y="506" type="curve" smooth="yes"/>
      <point x="379" y="442"/>
      <point x="209" y="405"/>
      <point x="209" y="242" type="curve"/>
      <point x="209" y="234" type="line"/>
    </contour>
    <contour>
      <point x="340" y="-11"/>
      <point x="383" y="32"/>
      <point x="383" y="86" type="curve" smooth="yes"/>
      <point x="383" y="138"/>
      <point x="340" y="181"/>
      <point x="286" y="181" type="curve" smooth="yes"/>
      <point x="232" y="181"/>
      <point x="189" y="138"/>
      <point x="189" y="86" type="curve" smooth="yes"/>
      <point x="189" y="32"/>
      <point x="232" y="-11"/>
      <point x="286" y="-11" type="curve" smooth="yes"/>
    </contour>
  </outline>
</glyph>
<glyph name="at" format="1">
  <advance width="600"/>
  <unicode hex="0040"/>
  <outline>
    <contour>
      <point x="347" y="-11"/>
      <point x="426" y="10"/>
      <point x="431" y="13" type="curve"/>
      <point x="370" y="124" type="line"/>
      <point x="370" y="124"/>
      <point x="340" y="105"/>
      <point x="263" y="108" type="curve" smooth="yes"/>
      <point x="140" y="113"/>
      <point x="112" y="207"/>
      <point x="128" y="362" type="curve" smooth="yes"/>
      <point x="144" y="530"/>
      <point x="205" y="592"/>
      <point x="338" y="591" type="curve" smooth="yes"/>
      <point x="471" y="590"/>
      <point x="493" y="529"/>
      <point x="475" y="361" type="curve" smooth="yes"/>
      <point x="467" y="291"/>
      <point x="468" y="252"/>
      <point x="444" y="252" type="curve" smooth="yes"/>
      <point x="429" y="253"/>
      <point x="436" y="303"/>
      <point x="439" y="337" type="curve" smooth="yes"/>
      <point x="441" y="373"/>
      <point x="458" y="513"/>
      <point x="458" y="513" type="curve" smooth="yes"/>
      <point x="458" y="513"/>
      <point x="402" y="550"/>
      <point x="336" y="552" type="curve" smooth="yes"/>
      <point x="241" y="555"/>
      <point x="169" y="491"/>
      <point x="156" y="347" type="curve" smooth="yes"/>
      <point x="143" y="201"/>
      <point x="191" y="145"/>
      <point x="268" y="145" type="curve" smooth="yes"/>
      <point x="318" y="145"/>
      <point x="361" y="181"/>
      <point x="370" y="210" type="curve"/>
      <point x="368" y="174"/>
      <point x="387" y="125"/>
      <point x="437" y="116" type="curve" smooth="yes"/>
      <point x="537" y="99"/>
      <point x="578" y="194"/>
      <point x="592" y="351" type="curve" smooth="yes"/>
      <point x="616" y="614"/>
      <point x="501" y="704"/>
      <point x="353" y="706" type="curve" smooth="yes"/>
      <point x="198" y="708"/>
      <point x="21" y="643"/>
      <point x="4" y="348" type="curve" smooth="yes"/>
      <point x="-13" y="50"/>
      <point x="136" y="-6"/>
      <point x="263" y="-9" type="curve" smooth="yes"/>
    </contour>
    <contour>
      <point x="273" y="294"/>
      <point x="272" y="310"/>
      <point x="276" y="347" type="curve" smooth="yes"/>
      <point x="281" y="391"/>
      <point x="288" y="418"/>
      <point x="313" y="417" type="curve" smooth="yes"/>
      <point x="322" y="416"/>
      <point x="328" y="413"/>
      <point x="328" y="413" type="curve"/>
      <point x="328" y="413"/>
      <point x="322" y="353"/>
      <point x="321" y="344" type="curve" smooth="yes"/>
      <point x="319" y="301"/>
      <point x="306" y="287"/>
      <point x="294" y="290" type="curve" smooth="yes"/>
    </contour>
  </outline>
</glyph>
<glyph name="A" format="1">
  <advance width="600"/>
  <unicode hex="0041"/>
  <outline>
    <contour>
      <point x="9" y="0" type="line"/>
      <point x="190" y="0" type="line"/>
      <point x="347" y="700" type="line"/>
      <point x="166" y="700" type="line"/>
    </contour>
    <contour>
      <point x="253" y="700" type="line"/>
      <point x="410" y="0" type="line"/>
      <point x="591" y="0" type="line"/>
      <point x="434" y="700" type="line"/>
    </contour>
    <contour>
      <point x="221" y="618" type="line"/>
      <point x="379" y="618" type="line"/>
      <point x="379" y="700" type="line"/>
      <point x="221" y="700" type="line"/>
    </contour>
    <contour>
      <point x="129" y="147" type="line"/>
      <point x="471" y="147" type="line"/>
      <point x="471" y="286" type="line"/>
      <point x="129" y="286" type="line"/>
    </contour>
  </outline>
</glyph>
<glyph name="B" format="1">
  <advance width="600"/>
  <unicode hex="0042"/>
  <outline>
    <contour>
      <point x="428" y="371"/>
      <point x="530" y="386"/>
      <point x="530" y="529" type="curve" smooth="yes"/>
      <point x="530" y="690"/>
      <point x="402" y="700"/>
      <point x="318" y="700" type="curve" smooth="yes"/>
      <point x="69" y="700" type="line"/>
      <point x="69" y="0" type="line"/>
      <point x="369" y="0" type="line" smooth="yes"/>
      <point x="488" y="0"/>
      <point x="565" y="66"/>
      <point x="565" y="200" type="curve" smooth="yes"/>
      <point x="565" y="356"/>
      <point x="428" y="371"/>
      <point x="428" y="371" type="curve" smooth="yes"/>
    </contour>
    <contour>
      <point x="267" y="561" type="line" smooth="yes"/>
      <point x="329" y="561"/>
      <point x="346" y="542"/>
      <point x="346" y="500" type="curve" smooth="yes"/>
      <point x="346" y="450"/>
      <point x="331" y="431"/>
      <point x="271" y="431" type="curve" smooth="yes"/>
      <point x="247" y="431" type="line"/>
      <point x="247" y="561" type="line"/>
    </contour>
    <contour>
      <point x="247" y="139" type="line"/>
      <point x="247" y="291" type="line"/>
      <point x="302" y="291" type="line" smooth="yes"/>
      <point x="359" y="291"/>
      <point x="386" y="279"/>
      <point x="386" y="215" type="curve" smooth="yes"/>
      <point x="386" y="154"/>
      <point x="364" y="139"/>
      <point x="302" y="139" type="curve" smooth="yes"/>
    </contour>
  </outline>
</glyph>
<glyph name="C" format="1">
  <advance width="600"/>
  <unicode hex="0043"/>
  <outline>
    <contour>
      <point x="424" y="229" type="line"/>
      <point x="417" y="215"/>
      <point x="403" y="129"/>
      <point x="319" y="129" type="curve" smooth="yes"/>
      <point x="255" y="129"/>
      <point x="219" y="158"/>
      <point x="219" y="348" type="curve" smooth="yes"/>
      <point x="219" y="537"/>
      <point x="255" y="566"/>
      <point x="319" y="566" type="curve" smooth="yes"/>
      <point x="373" y="566"/>
      <point x="408" y="515"/>
      <point x="425" y="469" type="curve"/>
      <point x="580" y="556" type="line"/>
      <point x="532" y="646"/>
      <point x="469" y="706"/>
      <point x="319" y="706" type="curve" smooth="yes"/>
      <point x="143" y="706"/>
      <point x="35" y="630"/>
      <point x="35" y="348" type="curve" smooth="yes"/>
      <point x="35" y="65"/>
      <point x="143" y="-11"/>
      <point x="319" y="-11" type="curve" smooth="yes"/>
      <point x="440" y="-11"/>
      <point x="527" y="32"/>
      <point x="588" y="147" type="curve"/>
    </contour>
  </outline>
</glyph>
<glyph name="D" format="1">
  <advance width="600"/>
  <unicode hex="0044"/>
  <outline>
    <contour>
      <point x="593" y="350" type="line"/>
      <point x="593" y="700"/>
      <point x="416" y="700"/>
      <point x="311" y="700" type="curve" smooth="yes"/>
      <point x="82" y="700" type="line"/>
      <point x="82" y="350" type="line"/>
      <point x="260" y="350" type="line"/>
      <point x="260" y="402" type="line"/>
      <point x="260" y="561" type="line"/>
      <point x="282" y="561" type="line"/>
      <point x="394" y="561"/>
      <point x="410" y="509"/>
      <point x="410" y="350" type="curve"/>
    </contour>
    <contour>
      <point x="410" y="191"/>
      <point x="394" y="139"/>
      <point x="282" y="139" type="curve"/>
      <point x="260" y="139" type="line"/>
      <point x="260" y="298" type="line"/>
      <point x="260" y="350" type="line"/>
      <point x="82" y="350" type="line"/>
      <point x="82" y="0" type="line"/>
      <point x="311" y="0" type="line" smooth="yes"/>
      <point x="416" y="0"/>
      <point x="593" y="0"/>
      <point x="593" y="350" type="curve"/>
      <point x="410" y="350" type="line"/>
    </contour>
  </outline>
</glyph>
<glyph name="E" format="1">
  <advance width="600"/>
  <unicode hex="0045"/>
  <outline>
    <contour>
      <point x="266" y="0" type="line"/>
      <point x="266" y="700" type="line"/>
      <point x="87" y="700" type="line"/>
      <point x="87" y="0" type="line"/>
    </contour>
    <contour>
      <point x="177" y="0" type="line"/>
      <point x="544" y="0" type="line"/>
      <point x="544" y="139" type="line"/>
      <point x="177" y="139" type="line"/>
    </contour>
    <contour>
      <point x="177" y="274" type="line"/>
      <point x="490" y="274" type="line"/>
      <point x="490" y="414" type="line"/>
      <point x="177" y="414" type="line"/>
    </contour>
    <contour>
      <point x="177" y="561" type="line"/>
      <point x="544" y="561" type="line"/>
      <point x="544" y="700" type="line"/>
      <point x="177" y="700" type="line"/>
    </contour>
  </outline>
</glyph>
<glyph name="F" format="1">
  <advance width="600"/>
  <unicode hex="0046"/>
  <outline>
    <contour>
      <point x="281" y="0" type="line"/>
      <point x="281" y="700" type="line"/>
      <point x="102" y="700" type="line"/>
      <point x="102" y="0" type="line"/>
    </contour>
    <contour>
      <point x="193" y="274" type="line"/>
      <point x="505" y="274" type="line"/>
      <point x="505" y="414" type="line"/>
      <point x="193" y="414" type="line"/>
    </contour>
    <contour>
      <point x="193" y="561" type="line"/>
      <point x="545" y="561" type="line"/>
      <point x="545" y="700" type="line"/>
      <point x="193" y="700" type="line"/>
    </contour>
  </outline>
</glyph>
<glyph name="G" format="1">
  <advance width="600"/>
  <unicode hex="0047"/>
  <outline>
    <contour>
      <point x="387" y="155" type="line"/>
      <point x="377" y="143"/>
      <point x="349" y="129"/>
      <point x="308" y="129" type="curve" smooth="yes"/>
      <point x="254" y="129"/>
      <point x="205" y="154"/>
      <point x="205" y="348" type="curve" smooth="yes"/>
      <point x="205" y="542"/>
      <point x="253" y="566"/>
      <point x="304" y="566" type="curve" smooth="yes"/>
      <point x="383" y="566"/>
      <point x="391" y="515"/>
      <point x="417" y="470" type="curve"/>
      <point x="573" y="555" type="line"/>
      <point x="525" y="645"/>
      <point x="466" y="706"/>
      <point x="305" y="706" type="curve" smooth="yes"/>
      <point x="144" y="706"/>
      <point x="21" y="635"/>
      <point x="21" y="348" type="curve" smooth="yes"/>
      <point x="21" y="60"/>
      <point x="147" y="-11"/>
      <point x="308" y="-11" type="curve" smooth="yes"/>
      <point x="429" y="-11"/>
      <point x="523" y="49"/>
      <point x="565" y="118" type="curve"/>
    </contour>
    <contour>
      <point x="285" y="260" type="line"/>
      <point x="565" y="260" type="line"/>
      <point x="565" y="399" type="line"/>
      <point x="285" y="399" type="line"/>
    </contour>
    <contour>
      <point x="565" y="118" type="line"/>
      <point x="565" y="399" type="line"/>
      <point x="386" y="399" type="line"/>
      <point x="386" y="104" type="line"/>
    </contour>
  </outline>
</glyph>
<glyph name="H" format="1">
  <advance width="600"/>
  <unicode hex="0048"/>
  <outline>
    <contour>
      <point x="230" y="0" type="line"/>
      <point x="230" y="700" type="line"/>
      <point x="51" y="700" type="line"/>
      <point x="51" y="0" type="line"/>
    </contour>
    <contour>
      <point x="142" y="294" type="line"/>
      <point x="454" y="294" type="line"/>
      <point x="454" y="434" type="line"/>
      <point x="142" y="434" type="line"/>
    </contour>
    <contour>
      <point x="548" y="0" type="line"/>
      <point x="548" y="700" type="line"/>
      <point x="369" y="700" type="line"/>
      <point x="369" y="0" type="line"/>
    </contour>
  </outline>
</glyph>
<glyph name="I" format="1">
  <advance width="600"/>
  <unicode hex="0049"/>
  <outline>
    <contour>
      <point x="388" y="0" type="line"/>
      <point x="388" y="700" type="line"/>
      <point x="209" y="700" type="line"/>
      <point x="209" y="0" type="line"/>
    </contour>
    <contour>
      <point x="89" y="0" type="line"/>
      <point x="509" y="0" type="line"/>
      <point x="509" y="139" type="line"/>
      <point x="89" y="139" type="line"/>
    </contour>
    <contour>
      <point x="89" y="561" type="line"/>
      <point x="509" y="561" type="line"/>
      <point x="509" y="700" type="line"/>
      <point x="89" y="700" type="line"/>
    </contour>
  </outline>
</glyph>
<glyph name="J" format="1">
  <advance width="600"/>
  <unicode hex="004A"/>
  <outline>
    <contour>
      <point x="316" y="700" type="line"/>
      <point x="316" y="198" type="line"/>
      <point x="495" y="171" type="line"/>
      <point x="495" y="700" type="line"/>
    </contour>
    <contour>
      <point x="40" y="50" type="line"/>
      <point x="73" y="13"/>
      <point x="160" y="-9"/>
      <point x="245" y="-9" type="curve"/>
      <point x="375" y="-9"/>
      <point x="495" y="53"/>
      <point x="495" y="171" type="curve"/>
      <point x="316" y="198" type="line"/>
      <point x="316" y="149"/>
      <point x="269" y="131"/>
      <point x="238" y="131" type="curve"/>
      <point x="201" y="131"/>
      <point x="156" y="152"/>
      <point x="138" y="168" type="curve"/>
    </contour>
    <contour>
      <point x="104" y="561" type="line"/>
      <point x="445" y="561" type="line"/>
      <point x="445" y="700" type="line"/>
      <point x="104" y="700" type="line"/>
    </contour>
  </outline>
</glyph>
<glyph name="K" format="1">
  <advance width="600"/>
  <unicode hex="004B"/>
  <outline>
    <contour>
      <point x="253" y="0" type="line"/>
      <point x="253" y="700" type="line"/>
      <point x="74" y="700" type="line"/>
      <point x="74" y="0" type="line"/>
    </contour>
    <contour>
      <point x="165" y="289" type="line"/>
      <point x="307" y="289" type="line"/>
      <point x="307" y="429" type="line"/>
      <point x="165" y="429" type="line"/>
    </contour>
    <contour>
      <point x="223" y="379" type="line"/>
      <point x="386" y="346" type="line"/>
      <point x="632" y="700" type="line"/>
      <point x="439" y="700" type="line"/>
    </contour>
    <contour>
      <point x="649" y="0" type="line"/>
      <point x="381" y="379" type="line"/>
      <point x="196" y="379" type="line"/>
      <point x="456" y="0" type="line"/>
    </contour>
  </outline>
</glyph>
<glyph name="L" format="1">
  <advance width="600"/>
  <unicode hex="004C"/>
  <outline>
    <contour>
      <point x="289" y="0" type="line"/>
      <point x="289" y="700" type="line"/>
      <point x="110" y="700" type="line"/>
      <point x="110" y="0" type="line"/>
    </contour>
    <contour>
      <point x="201" y="0" type="line"/>
      <point x="567" y="0" type="line"/>
      <point x="567" y="139" type="line"/>
      <point x="201" y="139" type="line"/>
    </contour>
  </outline>
</glyph>
<glyph name="M" format="1">
  <advance width="600"/>
  <unicode hex="004D"/>
  <outline>
    <contour>
      <point x="190" y="0" type="line"/>
      <point x="175" y="700" type="line"/>
      <point x="41" y="700" type="line"/>
      <point x="11" y="0" type="line"/>
    </contour>
    <contour>
      <point x="589" y="0" type="line"/>
      <point x="559" y="700" type="line"/>
      <point x="425" y="700" type="line"/>
      <point x="410" y="0" type="line"/>
    </contour>
    <contour>
      <point x="306" y="437" type="line"/>
      <point x="284" y="101" type="line"/>
      <point x="363" y="101" type="line"/>
      <point x="411" y="409" type="line"/>
      <point x="437" y="700" type="line"/>
      <point x="370" y="700" type="line"/>
    </contour>
    <contour>
      <point x="163" y="700" type="line"/>
      <point x="189" y="410" type="line"/>
      <point x="237" y="101" type="line"/>
      <point x="316" y="101" type="line"/>
      <point x="294" y="437" type="line"/>
      <point x="230" y="700" type="line"/>
    </contour>
  </outline>
</glyph>
<glyph name="N" format="1">
  <advance width="600"/>
  <unicode hex="004E"/>
  <outline>
    <contour>
      <point x="231" y="0" type="line"/>
      <point x="231" y="700" type="line"/>
      <point x="52" y="700" type="line"/>
      <point x="52" y="0" type="line"/>
    </contour>
    <contour>
      <point x="68" y="700" type="line"/>
      <point x="380" y="0" type="line"/>
      <point x="534" y="0" type="line"/>
      <point x="222" y="700" type="line"/>
    </contour>
    <contour>
      <point x="550" y="0" type="line"/>
      <point x="550" y="700" type="line"/>
      <point x="371" y="700" type="line"/>
      <point x="371" y="0" type="line"/>
    </contour>
  </outline>
</glyph>
<glyph name="O" format="1">
  <advance width="600"/>
  <unicode hex="004F"/>
  <outline>
    <contour>
      <point x="457" y="-11"/>
      <point x="565" y="60"/>
      <point x="565" y="348" type="curve" smooth="yes"/>
      <point x="565" y="635"/>
      <point x="457" y="706"/>
      <point x="297" y="706" type="curve" smooth="yes"/>
      <point x="136" y="706"/>
      <point x="28" y="635"/>
      <point x="28" y="348" type="curve" smooth="yes"/>
      <point x="28" y="60"/>
      <point x="136" y="-11"/>
      <point x="297" y="-11" type="curve" smooth="yes"/>
    </contour>
    <contour>
      <point x="247" y="129"/>
      <point x="211" y="181"/>
      <point x="211" y="348" type="curve" smooth="yes"/>
      <point x="211" y="514"/>
      <point x="247" y="566"/>
      <point x="297" y="566" type="curve" smooth="yes"/>
      <point x="346" y="566"/>
      <point x="382" y="514"/>
      <point x="382" y="348" type="curve" smooth="yes"/>
      <point x="382" y="181"/>
      <point x="346" y="129"/>
      <point x="297" y="129" type="curve" smooth="yes"/>
    </contour>
  </outline>
</glyph>
<glyph name="P" format="1">
  <advance width="600"/>
  <unicode hex="0050"/>
  <outline>
    <contour>
      <point x="288" y="561" type="line" smooth="yes"/>
      <point x="353" y="561"/>
      <point x="380" y="542"/>
      <point x="380" y="465" type="curve" smooth="yes"/>
      <point x="380" y="378"/>
      <point x="353" y="365"/>
      <point x="288" y="365" type="curve" smooth="yes"/>
      <point x="275" y="365" type="line"/>
      <point x="275" y="561" type="line"/>
    </contour>
    <contour>
      <point x="416" y="226"/>
      <point x="561" y="244"/>
      <point x="561" y="479" type="curve" smooth="yes"/>
      <point x="561" y="690"/>
      <point x="416" y="700"/>
      <point x="332" y="700" type="curve" smooth="yes"/>
      <point x="97" y="700" type="line"/>
      <point x="97" y="0" type="line"/>
      <point x="275" y="0" type="line"/>
      <point x="275" y="226" type="line"/>
      <point x="332" y="226" type="line" smooth="yes"/>
    </contour>
  </outline>
</glyph>
<glyph name="Q" format="1">
  <advance width="600"/>
  <unicode hex="0051"/>
  <outline>
    <contour>
      <point x="459" y="-11"/>
      <point x="567" y="60"/>
      <point x="567" y="348" type="curve" smooth="yes"/>
      <point x="567" y="635"/>
      <point x="459" y="706"/>
      <point x="299" y="706" type="curve" smooth="yes"/>
      <point x="137" y="706"/>
      <point x="29" y="635"/>
      <point x="29" y="348" type="curve" smooth="yes"/>
      <point x="29" y="60"/>
      <point x="137" y="-11"/>
      <point x="299" y="-11" type="curve" smooth="yes"/>
    </contour>
    <contour>
      <point x="603" y="-6" type="line"/>
      <point x="414" y="185" type="line"/>
      <point x="293" y="63" type="line"/>
      <point x="481" y="-123" type="line"/>
    </contour>
    <contour>
      <point x="249" y="129"/>
      <point x="213" y="181"/>
      <point x="213" y="348" type="curve" smooth="yes"/>
      <point x="213" y="514"/>
      <point x="249" y="566"/>
      <point x="299" y="566" type="curve" smooth="yes"/>
      <point x="348" y="566"/>
      <point x="383" y="514"/>
      <point x="383" y="348" type="curve" smooth="yes"/>
      <point x="383" y="181"/>
      <point x="348" y="129"/>
      <point x="299" y="129" type="curve" smooth="yes"/>
    </contour>
  </outline>
</glyph>
<glyph name="R" format="1">
  <advance width="600"/>
  <unicode hex="0052"/>
  <outline>
    <contour>
      <point x="305" y="561" type="line" smooth="yes"/>
      <point x="363" y="561"/>
      <point x="378" y="533"/>
      <point x="378" y="496" type="curve" smooth="yes"/>
      <point x="378" y="446"/>
      <point x="361" y="415"/>
      <point x="303" y="415" type="curve" smooth="yes"/>
      <point x="256" y="415" type="line"/>
      <point x="256" y="561" type="line"/>
    </contour>
    <contour>
      <point x="420" y="276"/>
      <point x="557" y="301"/>
      <point x="557" y="499" type="curve" smooth="yes"/>
      <point x="557" y="683"/>
      <point x="422" y="700"/>
      <point x="338" y="700" type="curve" smooth="yes"/>
      <point x="78" y="700" type="line"/>
      <point x="78" y="0" type="line"/>
      <point x="256" y="0" type="line"/>
      <point x="256" y="276" type="line"/>
      <point x="336" y="276" type="line" smooth="yes"/>
    </contour>
    <contour>
      <point x="564" y="0" type="line"/>
      <point x="441" y="313" type="line"/>
      <point x="262" y="313" type="line"/>
      <point x="375" y="0" type="line"/>
    </contour>
  </outline>
</glyph>
<glyph name="S" format="1">
  <advance width="600"/>
  <unicode hex="0053"/>
  <outline>
    <contour>
      <point x="256" y="459"/>
      <point x="235" y="494"/>
      <point x="235" y="516" type="curve" smooth="yes"/>
      <point x="235" y="542"/>
      <point x="257" y="566"/>
      <point x="314" y="566" type="curve" smooth="yes"/>
      <point x="364" y="566"/>
      <point x="406" y="536"/>
      <point x="429" y="483" type="curve"/>
      <point x="564" y="556" type="line"/>
      <point x="532" y="649"/>
      <point x="433" y="706"/>
      <point x="314" y="706" type="curve" smooth="yes"/>
      <point x="177" y="706"/>
      <point x="50" y="657"/>
      <point x="50" y="520" type="curve" smooth="yes"/>
      <point x="50" y="363"/>
      <point x="209" y="310"/>
      <point x="279" y="286" type="curve" smooth="yes"/>
      <point x="345" y="263"/>
      <point x="387" y="235"/>
      <point x="387" y="197" type="curve" smooth="yes"/>
      <point x="387" y="155"/>
      <point x="344" y="129"/>
      <point x="293" y="129" type="curve" smooth="yes"/>
      <point x="228" y="129"/>
      <point x="187" y="165"/>
      <point x="164" y="215" type="curve"/>
      <point x="14" y="141" type="line"/>
      <point x="60" y="44"/>
      <point x="148" y="-11"/>
      <point x="293" y="-11" type="curve" smooth="yes"/>
      <point x="443" y="-11"/>
      <point x="571" y="39"/>
      <point x="571" y="201" type="curve" smooth="yes"/>
      <point x="571" y="368"/>
      <point x="393" y="410"/>
      <point x="309" y="440" type="curve" smooth="yes"/>
    </contour>
  </outline>
</glyph>
<glyph name="T" format="1">
  <advance width="600"/>
  <unicode hex="0054"/>
  <outline>
    <contour>
      <point x="388" y="0" type="line"/>
      <point x="388" y="700" type="line"/>
      <point x="209" y="700" type="line"/>
      <point x="209" y="0" type="line"/>
    </contour>
    <contour>
      <point x="49" y="561" type="line"/>
      <point x="549" y="561" type="line"/>
      <point x="549" y="700" type="line"/>
      <point x="49" y="700" type="line"/>
    </contour>
  </outline>
</glyph>
<glyph name="U" format="1">
  <advance width="600"/>
  <unicode hex="0055"/>
  <outline>
    <contour>
      <point x="443" y="-11"/>
      <point x="556" y="31"/>
      <point x="556" y="264" type="curve" smooth="yes"/>
      <point x="556" y="264"/>
      <point x="556" y="700"/>
      <point x="556" y="700" type="curve" smooth="yes"/>
      <point x="378" y="700" type="line" smooth="yes"/>
      <point x="378" y="700"/>
      <point x="378" y="279"/>
      <point x="378" y="279" type="curve" smooth="yes"/>
      <point x="378" y="152"/>
      <point x="347" y="129"/>
      <point x="301" y="129" type="curve" smooth="yes"/>
      <point x="257" y="129"/>
      <point x="223" y="152"/>
      <point x="223" y="279" type="curve" smooth="yes"/>
      <point x="223" y="279"/>
      <point x="223" y="700"/>
      <point x="223" y="700" type="curve" smooth="yes"/>
      <point x="45" y="700" type="line" smooth="yes"/>
      <point x="45" y="700"/>
      <point x="45" y="264"/>
      <point x="45" y="264" type="curve" smooth="yes"/>
      <point x="45" y="31"/>
      <point x="160" y="-11"/>
      <point x="301" y="-11" type="curve" smooth="yes"/>
    </contour>
  </outline>
</glyph>
<glyph name="V" format="1">
  <advance width="600"/>
  <unicode hex="0056"/>
  <outline>
    <contour>
      <point x="351" y="0" type="line"/>
      <point x="194" y="700" type="line"/>
      <point x="16" y="700" type="line"/>
      <point x="173" y="0" type="line"/>
    </contour>
    <contour>
      <point x="593" y="700" type="line"/>
      <point x="415" y="700" type="line"/>
      <point x="258" y="0" type="line"/>
      <point x="436" y="0" type="line"/>
    </contour>
    <contour>
      <point x="381" y="0" type="line"/>
      <point x="381" y="139" type="line"/>
      <point x="228" y="139" type="line"/>
      <point x="228" y="0" type="line"/>
    </contour>
  </outline>
</glyph>
<glyph name="W" format="1">
  <advance width="600"/>
  <unicode hex="0057"/>
  <outline>
    <contour>
      <point x="555" y="0" type="line"/>
      <point x="612" y="700" type="line"/>
      <point x="447" y="700" type="line"/>
      <point x="437" y="413" type="line"/>
      <point x="408" y="0" type="line"/>
    </contour>
    <contour>
      <point x="198" y="0" type="line"/>
      <point x="169" y="413" type="line"/>
      <point x="159" y="700" type="line"/>
      <point x="-6" y="700" type="line"/>
      <point x="51" y="0" type="line"/>
    </contour>
    <contour>
      <point x="228" y="0" type="line"/>
      <point x="293" y="233" type="line"/>
      <point x="326" y="599" type="line"/>
      <point x="235" y="599" type="line"/>
      <point x="185" y="384" type="line"/>
      <point x="158" y="0" type="line"/>
    </contour>
    <contour>
      <point x="448" y="0" type="line"/>
      <point x="421" y="384" type="line"/>
      <point x="371" y="599" type="line"/>
      <point x="280" y="599" type="line"/>
      <point x="313" y="233" type="line"/>
      <point x="378" y="0" type="line"/>
    </contour>
  </outline>
</glyph>
<glyph name="X" format="1">
  <advance width="600"/>
  <unicode hex="0058"/>
  <outline>
    <contour>
      <point x="287" y="276" type="line"/>
      <point x="369" y="276" type="line"/>
      <point x="455" y="416" type="line"/>
      <point x="287" y="416" type="line"/>
    </contour>
    <contour>
      <point x="276" y="366" type="line"/>
      <point x="441" y="333" type="line"/>
      <point x="605" y="700" type="line"/>
      <point x="417" y="700" type="line"/>
    </contour>
    <contour>
      <point x="605" y="0" type="line"/>
      <point x="436" y="366" type="line"/>
      <point x="256" y="366" type="line"/>
      <point x="417" y="0" type="line"/>
    </contour>
    <contour>
      <point x="227" y="416" type="line"/>
      <point x="227" y="276" type="line"/>
      <point x="299" y="276" type="line"/>
      <point x="299" y="416" type="line"/>
    </contour>
    <contour>
      <point x="-9" y="700" type="line"/>
      <point x="155" y="333" type="line"/>
      <point x="320" y="366" type="line"/>
      <point x="179" y="700" type="line"/>
    </contour>
    <contour>
      <point x="340" y="366" type="line"/>
      <point x="160" y="366" type="line"/>
      <point x="-9" y="0" type="line"/>
      <point x="179" y="0" type="line"/>
    </contour>
  </outline>
</glyph>
<glyph name="Y" format="1">
  <advance width="600"/>
  <unicode hex="0059"/>
  <outline>
    <contour>
      <point x="301" y="433" type="line"/>
      <point x="390" y="248" type="line"/>
      <point x="598" y="700" type="line"/>
      <point x="405" y="700" type="line"/>
    </contour>
    <contour>
      <point x="2" y="700" type="line"/>
      <point x="213" y="243" type="line"/>
      <point x="299" y="433" type="line"/>
      <point x="195" y="700" type="line"/>
    </contour>
    <contour>
      <point x="390" y="0" type="line"/>
      <point x="390" y="433" type="line"/>
      <point x="211" y="433" type="line"/>
      <point x="211" y="0" type="line"/>
    </contour>
  </outline>
</glyph>
<glyph name="Z" format="1">
  <advance width="600"/>
  <unicode hex="005A"/>
  <outline>
    <contour>
      <point x="265" y="139" type="line"/>
      <point x="512" y="561" type="line"/>
      <point x="325" y="561" type="line"/>
      <point x="78" y="139" type="line"/>
    </contour>
    <contour>
      <point x="86" y="561" type="line"/>
      <point x="512" y="561" type="line"/>
      <point x="512" y="700" type="line"/>
      <point x="86" y="700" type="line"/>
    </contour>
    <contour>
      <point x="78" y="0" type="line"/>
      <point x="538" y="0" type="line"/>
      <point x="538" y="139" type="line"/>
      <point x="78" y="139" type="line"/>
    </contour>
  </outline>
</glyph>
<glyph name="bracketleft" format="1">
  <advance width="600"/>
  <unicode hex="005B"/>
  <outline>
    <contour>
      <point x="376" y="814" type="line"/>
      <point x="376" y="675" type="line"/>
      <point x="509" y="675" type="line"/>
      <point x="509" y="814" type="line"/>
    </contour>
    <contour>
      <point x="381" y="814" type="line"/>
      <point x="202" y="814" type="line"/>
      <point x="202" y="-214" type="line"/>
      <point x="381" y="-214" type="line"/>
    </contour>
    <contour>
      <point x="376" y="-75" type="line"/>
      <point x="376" y="-214" type="line"/>
      <point x="509" y="-214" type="line"/>
      <point x="509" y="-75" type="line"/>
    </contour>
  </outline>
</glyph>
<glyph name="backslash" format="1">
  <advance width="600"/>
  <unicode hex="005C"/>
  <outline>
    <contour>
      <point x="343" y="-142" type="line"/>
      <point x="509" y="-142" type="line"/>
      <point x="260" y="800" type="line"/>
      <point x="94" y="800" type="line"/>
    </contour>
  </outline>
</glyph>
<glyph name="asciicircum" format="1">
  <advance width="600"/>
  <unicode hex="005E"/>
  <outline>
    <contour>
      <point x="489" y="551" type="line"/>
      <point x="405" y="800" type="line"/>
      <point x="201" y="800" type="line"/>
      <point x="117" y="551" type="line"/>
      <point x="257" y="551" type="line"/>
      <point x="302" y="685" type="line"/>
      <point x="304" y="685" type="line"/>
      <point x="349" y="551" type="line"/>
    </contour>
  </outline>
</glyph>
<glyph name="underscore" format="1">
  <advance width="600"/>
  <unicode hex="005F"/>
  <outline>
    <contour>
      <point x="16" y="-169" type="line"/>
      <point x="584" y="-169" type="line"/>
      <point x="584" y="-29" type="line"/>
      <point x="16" y="-29" type="line"/>
    </contour>
  </outline>
</glyph>
<glyph name="grave" format="1">
  <advance width="600"/>
  <unicode hex="0060"/>
  <outline>
    <contour>
      <point x="328" y="765" type="line"/>
      <point x="136" y="765" type="line"/>
      <point x="295" y="609" type="line"/>
      <point x="447" y="609" type="line"/>
    </contour>
  </outline>
</glyph>
<glyph name="a" format="1">
  <advance width="600"/>
  <unicode hex="0061"/>
  <outline>
    <contour>
      <point x="536" y="355" type="line"/>
      <point x="536" y="461"/>
      <point x="438" y="512"/>
      <point x="312" y="512" type="curve"/>
      <point x="217" y="512"/>
      <point x="137" y="492"/>
      <point x="73" y="428" type="curve"/>
      <point x="179" y="327" type="line"/>
      <point x="204" y="355"/>
      <point x="235" y="373"/>
      <point x="300" y="373" type="curve"/>
      <point x="350" y="373"/>
      <point x="357" y="341"/>
      <point x="357" y="311" type="curve"/>
    </contour>
    <contour>
      <point x="416" y="-11"/>
      <point x="475" y="76"/>
      <point x="475" y="76" type="curve"/>
      <point x="394" y="178" type="line"/>
      <point x="374" y="157"/>
      <point x="370" y="125"/>
      <point x="307" y="125" type="curve"/>
      <point x="234" y="125"/>
      <point x="232" y="142"/>
      <point x="232" y="153" type="curve"/>
      <point x="60" y="153" type="line"/>
      <point x="60" y="41"/>
      <point x="137" y="-11"/>
      <point x="290" y="-11" type="curve"/>
    </contour>
    <contour>
      <point x="232" y="153" type="line"/>
      <point x="232" y="164"/>
      <point x="227" y="204"/>
      <point x="344" y="204" type="curve"/>
      <point x="310" y="316" type="line"/>
      <point x="130" y="316"/>
      <point x="60" y="264"/>
      <point x="60" y="153" type="curve"/>
    </contour>
    <contour>
      <point x="599" y="73" type="line"/>
      <point x="490" y="182" type="line"/>
      <point x="388" y="82" type="line"/>
      <point x="496" y="-25" type="line"/>
    </contour>
    <contour>
      <point x="464" y="204" type="line"/>
      <point x="464" y="316" type="line"/>
      <point x="310" y="316" type="line"/>
      <point x="344" y="204" type="line"/>
    </contour>
    <contour>
      <point x="536" y="294" type="line"/>
      <point x="357" y="294" type="line"/>
      <point x="357" y="116" type="line"/>
      <point x="536" y="89" type="line"/>
    </contour>
    <contour>
      <point x="536" y="222" type="line"/>
      <point x="536" y="355" type="line"/>
      <point x="357" y="311" type="line"/>
      <point x="357" y="222" type="line"/>
    </contour>
  </outline>
</glyph>
<glyph name="b" format="1">
  <advance width="600"/>
  <unicode hex="0062"/>
  <outline>
    <contour>
      <point x="186" y="0" type="line"/>
      <point x="244" y="71" type="line"/>
      <point x="244" y="800" type="line"/>
      <point x="66" y="800" type="line"/>
      <point x="66" y="0" type="line"/>
    </contour>
    <contour>
      <point x="214" y="251" type="line"/>
      <point x="227" y="326"/>
      <point x="246" y="371"/>
      <point x="299" y="371" type="curve" smooth="yes"/>
      <point x="362" y="371"/>
      <point x="377" y="323"/>
      <point x="377" y="251" type="curve"/>
      <point x="555" y="251" type="line"/>
      <point x="555" y="434"/>
      <point x="472" y="511"/>
      <point x="332" y="511" type="curve" smooth="yes"/>
      <point x="233" y="511"/>
      <point x="156" y="414"/>
      <point x="156" y="302" type="curve"/>
    </contour>
    <contour>
      <point x="156" y="98"/>
      <point x="223" y="-11"/>
      <point x="322" y="-11" type="curve" smooth="yes"/>
      <point x="462" y="-11"/>
      <point x="555" y="68"/>
      <point x="555" y="251" type="curve"/>
      <point x="377" y="251" type="line"/>
      <point x="377" y="179"/>
      <point x="352" y="129"/>
      <point x="289" y="129" type="curve" smooth="yes"/>
      <point x="236" y="129"/>
      <point x="217" y="176"/>
      <point x="214" y="261" type="curve"/>
      <point x="156" y="210" type="line"/>
    </contour>
  </outline>
</glyph>
<glyph name="c" format="1">
  <advance width="600"/>
  <unicode hex="0063"/>
  <outline>
    <contour>
      <point x="415" y="181" type="line"/>
      <point x="402" y="153"/>
      <point x="382" y="129"/>
      <point x="334" y="129" type="curve" smooth="yes"/>
      <point x="282" y="129"/>
      <point x="257" y="153"/>
      <point x="257" y="251" type="curve" smooth="yes"/>
      <point x="257" y="351"/>
      <point x="282" y="372"/>
      <point x="334" y="372" type="curve" smooth="yes"/>
      <point x="382" y="372"/>
      <point x="412" y="347"/>
      <point x="422" y="306" type="curve"/>
      <point x="579" y="394" type="line"/>
      <point x="531" y="484"/>
      <point x="451" y="512"/>
      <point x="337" y="512" type="curve" smooth="yes"/>
      <point x="196" y="512"/>
      <point x="73" y="444"/>
      <point x="73" y="251" type="curve" smooth="yes"/>
      <point x="73" y="60"/>
      <point x="196" y="-11"/>
      <point x="337" y="-11" type="curve" smooth="yes"/>
      <point x="452" y="-11"/>
      <point x="526" y="18"/>
      <point x="574" y="100" type="curve"/>
    </contour>
  </outline>
</glyph>
<glyph name="e" format="1">
  <advance width="600"/>
  <unicode hex="0065"/>
  <outline>
    <contour>
      <point x="402" y="170" type="line"/>
      <point x="381" y="138"/>
      <point x="361" y="128"/>
      <point x="310" y="129" type="curve" smooth="yes"/>
      <point x="247" y="131"/>
      <point x="235" y="172"/>
      <point x="235" y="237" type="curve" smooth="yes"/>
      <point x="235" y="334"/>
      <point x="262" y="375"/>
      <point x="323" y="375" type="curve" smooth="yes"/>
      <point x="377" y="375"/>
      <point x="405" y="338"/>
      <point x="403" y="299" type="curve"/>
      <point x="558" y="195" type="line"/>
      <point x="568" y="400"/>
      <point x="485" y="512"/>
      <point x="316" y="512" type="curve" smooth="yes"/>
      <point x="152" y="512"/>
      <point x="65" y="402"/>
      <point x="65" y="251" type="curve" smooth="yes"/>
      <point x="65" y="102"/>
      <point x="143" y="-11"/>
      <point x="313" y="-11" type="curve" smooth="yes"/>
      <point x="418" y="-11"/>
      <point x="505" y="33"/>
      <point x="541" y="93" type="curve"/>
    </contour>
    <contour>
      <point x="217" y="195" type="line"/>
      <point x="558" y="195" type="line"/>
      <point x="451" y="299" type="line"/>
      <point x="217" y="299" type="line"/>
    </contour>
  </outline>
</glyph>
<glyph name="f" format="1">
  <advance width="600"/>
  <unicode hex="0066"/>
  <outline>
    <contour>
      <point x="377" y="0" type="line"/>
      <point x="377" y="549" type="line"/>
      <point x="198" y="597" type="line"/>
      <point x="198" y="0" type="line"/>
    </contour>
    <contour>
      <point x="109" y="361" type="line"/>
      <point x="529" y="361" type="line"/>
      <point x="529" y="500" type="line"/>
      <point x="109" y="500" type="line"/>
    </contour>
    <contour>
      <point x="572" y="782" type="line"/>
      <point x="545" y="792"/>
      <point x="526" y="807"/>
      <point x="442" y="807" type="curve"/>
      <point x="297" y="807"/>
      <point x="198" y="744"/>
      <point x="198" y="597" type="curve"/>
      <point x="377" y="549" type="line"/>
      <point x="377" y="635"/>
      <point x="404" y="667"/>
      <point x="449" y="667" type="curve"/>
      <point x="478" y="667"/>
      <point x="499" y="664"/>
      <point x="515" y="658" type="curve"/>
    </contour>
  </outline>
</glyph>
<glyph name="g" format="1">
  <advance width="600"/>
  <unicode hex="0067"/>
  <outline>
    <contour>
      <point x="429" y="149"/>
      <point x="544" y="188"/>
      <point x="544" y="331" type="curve" smooth="yes"/>
      <point x="544" y="473"/>
      <point x="436" y="512"/>
      <point x="301" y="512" type="curve" smooth="yes"/>
      <point x="165" y="512"/>
      <point x="57" y="473"/>
      <point x="57" y="331" type="curve" smooth="yes"/>
      <point x="57" y="188"/>
      <point x="165" y="149"/>
      <point x="301" y="149" type="curve" smooth="yes"/>
    </contour>
    <contour>
      <point x="261" y="282"/>
      <point x="241" y="286"/>
      <point x="241" y="331" type="curve" smooth="yes"/>
      <point x="241" y="375"/>
      <point x="265" y="379"/>
      <point x="301" y="379" type="curve" smooth="yes"/>
      <point x="336" y="379"/>
      <point x="360" y="371"/>
      <point x="360" y="331" type="curve" smooth="yes"/>
      <point x="360" y="286"/>
      <point x="340" y="282"/>
      <point x="301" y="282" type="curve" smooth="yes"/>
    </contour>
    <contour>
      <point x="287" y="-1" type="line"/>
      <point x="297" y="110" type="line"/>
      <point x="301" y="110" type="line" smooth="yes"/>
      <point x="248" y="110"/>
      <point x="236" y="142"/>
      <point x="259" y="170" type="curve"/>
      <point x="171" y="199" type="line"/>
      <point x="146" y="181"/>
      <point x="75" y="165"/>
      <point x="76" y="92" type="curve" smooth="yes"/>
      <point x="78" y="8"/>
      <point x="235" y="-1"/>
      <point x="283" y="-1" type="curve" smooth="yes"/>
    </contour>
    <contour>
      <point x="46" y="-176"/>
      <point x="173" y="-206"/>
      <point x="307" y="-206" type="curve"/>
      <point x="307" y="-88" type="line"/>
      <point x="251" y="-88"/>
      <point x="219" y="-78"/>
      <point x="208" y="-50" type="curve" smooth="yes"/>
      <point x="198" y="-24"/>
      <point x="214" y="-1"/>
      <point x="235" y="17" type="curve"/>
      <point x="138" y="45" type="line"/>
      <point x="113" y="27"/>
      <point x="46" y="4"/>
      <point x="46" y="-69" type="curve" smooth="yes"/>
    </contour>
    <contour>
      <point x="575" y="48"/>
      <point x="532" y="110"/>
      <point x="390" y="110" type="curve"/>
      <point x="345" y="-1" type="line"/>
      <point x="388" y="-1"/>
      <point x="413" y="-16"/>
      <point x="404" y="-50" type="curve" smooth="yes"/>
      <point x="395" y="-83"/>
      <point x="331" y="-88"/>
      <point x="307" y="-88" type="curve"/>
      <point x="307" y="-206" type="line"/>
      <point x="484" y="-206"/>
      <point x="552" y="-136"/>
      <point x="564" y="-43" type="curve" smooth="yes"/>
    </contour>
    <contour>
      <point x="390" y="110" type="line"/>
      <point x="390" y="110"/>
      <point x="389" y="110"/>
      <point x="389" y="110" type="curve" smooth="yes"/>
      <point x="297" y="110" type="line"/>
      <point x="287" y="-1" type="line"/>
      <point x="345" y="-1" type="line"/>
    </contour>
    <contour>
      <point x="341" y="384" type="line"/>
      <point x="435" y="291" type="line"/>
      <point x="595" y="450" type="line"/>
      <point x="500" y="540" type="line"/>
    </contour>
  </outline>
</glyph>
<glyph name="h" format="1">
  <advance width="600"/>
  <unicode hex="0068"/>
  <outline>
    <contour>
      <point x="225" y="0" type="line"/>
      <point x="225" y="800" type="line"/>
      <point x="46" y="800" type="line"/>
      <point x="46" y="0" type="line"/>
    </contour>
    <contour>
      <point x="212" y="289" type="line"/>
      <point x="210" y="295"/>
      <point x="248" y="371"/>
      <point x="297" y="371" type="curve" smooth="yes"/>
      <point x="346" y="371"/>
      <point x="362" y="314"/>
      <point x="362" y="223" type="curve" smooth="yes"/>
      <point x="362" y="0" type="line"/>
      <point x="541" y="0" type="line"/>
      <point x="541" y="311" type="line" smooth="yes"/>
      <point x="541" y="474"/>
      <point x="470" y="511"/>
      <point x="354" y="511" type="curve" smooth="yes"/>
      <point x="246" y="511"/>
      <point x="137" y="438"/>
      <point x="137" y="326" type="curve"/>
    </contour>
  </outline>
</glyph>
<glyph name="i" format="1">
  <advance width="600"/>
  <unicode hex="0069"/>
  <outline>
    <contour>
      <point x="70" y="361" type="line"/>
      <point x="235" y="361" type="line"/>
      <point x="235" y="500" type="line"/>
      <point x="70" y="500" type="line"/>
    </contour>
    <contour>
      <point x="409" y="56" type="line"/>
      <point x="409" y="500" type="line"/>
      <point x="230" y="500" type="line"/>
      <point x="230" y="31" type="line"/>
    </contour>
    <contour>
      <point x="230" y="0" type="line"/>
      <point x="534" y="0" type="line"/>
      <point x="534" y="139" type="line"/>
      <point x="230" y="139" type="line"/>
    </contour>
    <contour>
      <point x="390" y="573"/>
      <point x="445" y="628"/>
      <point x="445" y="698" type="curve" smooth="yes"/>
      <point x="445" y="768"/>
      <point x="390" y="823"/>
      <point x="320" y="823" type="curve" smooth="yes"/>
      <point x="250" y="823"/>
      <point x="195" y="768"/>
      <point x="195" y="698" type="curve" smooth="yes"/>
      <point x="195" y="628"/>
      <point x="250" y="573"/>
      <point x="320" y="573" type="curve" smooth="yes"/>
    </contour>
  </outline>
</glyph>
<glyph name="j" format="1">
  <advance width="600"/>
  <unicode hex="006A"/>
  <outline>
    <contour>
      <point x="294" y="500" type="line"/>
      <point x="294" y="22" type="line"/>
      <point x="473" y="-12" type="line"/>
      <point x="473" y="500" type="line"/>
    </contour>
    <contour>
      <point x="112" y="-176" type="line"/>
      <point x="136" y="-182"/>
      <point x="168" y="-192"/>
      <point x="229" y="-192" type="curve"/>
      <point x="402" y="-192"/>
      <point x="473" y="-130"/>
      <point x="473" y="-12" type="curve"/>
      <point x="294" y="22" type="line"/>
      <point x="294" y="-21"/>
      <point x="267" y="-52"/>
      <point x="222" y="-52" type="curve"/>
      <point x="201" y="-52"/>
      <point x="166" y="-46"/>
      <point x="150" y="-40" type="curve"/>
    </contour>
    <contour>
      <point x="159" y="361" type="line"/>
      <point x="409" y="361" type="line"/>
      <point x="409" y="500" type="line"/>
      <point x="159" y="500" type="line"/>
    </contour>
    <contour>
      <point x="447" y="573"/>
      <point x="503" y="628"/>
      <point x="503" y="698" type="curve" smooth="yes"/>
      <point x="503" y="768"/>
      <point x="447" y="823"/>
      <point x="378" y="823" type="curve" smooth="yes"/>
      <point x="308" y="823"/>
      <point x="252" y="768"/>
      <point x="252" y="698" type="curve" smooth="yes"/>
      <point x="252" y="628"/>
      <point x="308" y="573"/>
      <point x="378" y="573" type="curve" smooth="yes"/>
    </contour>
  </outline>
</glyph>
<glyph name="k" format="1">
  <advance width="600"/>
  <unicode hex="006B"/>
  <outline>
    <contour>
      <point x="219" y="0" type="line"/>
      <point x="219" y="800" type="line"/>
      <point x="41" y="800" type="line"/>
      <point x="41" y="0" type="line"/>
    </contour>
    <contour>
      <point x="174" y="189" type="line"/>
      <point x="296" y="189" type="line"/>
      <point x="296" y="329" type="line"/>
      <point x="174" y="329" type="line"/>
    </contour>
    <contour>
      <point x="198" y="279" type="line"/>
      <point x="364" y="246" type="line"/>
      <point x="602" y="500" type="line"/>
      <point x="392" y="500" type="line"/>
    </contour>
    <contour>
      <point x="619" y="0" type="line"/>
      <point x="364" y="279" type="line"/>
      <point x="171" y="279" type="line"/>
      <point x="409" y="0" type="line"/>
    </contour>
  </outline>
</glyph>
<glyph name="l" format="1">
  <advance width="600"/>
  <unicode hex="006C"/>
  <outline>
    <contour>
      <point x="380" y="50" type="line"/>
      <point x="380" y="800" type="line"/>
      <point x="201" y="800" type="line"/>
      <point x="201" y="22" type="line"/>
    </contour>
    <contour>
      <point x="493" y="0" type="line"/>
      <point x="493" y="139" type="line"/>
      <point x="201" y="139" type="line"/>
      <point x="201" y="0" type="line"/>
    </contour>
    <contour>
      <point x="206" y="661" type="line"/>
      <point x="206" y="800" type="line"/>
      <point x="79" y="800" type="line"/>
      <point x="79" y="661" type="line"/>
    </contour>
  </outline>
</glyph>
<glyph name="m" format="1">
  <advance width="600"/>
  <unicode hex="006D"/>
  <outline>
    <contour>
      <point x="601" y="0" type="line"/>
      <point x="601" y="322" type="line" smooth="yes"/>
      <point x="601" y="485"/>
      <point x="530" y="511"/>
      <point x="464" y="511" type="curve" smooth="yes"/>
      <point x="393" y="511"/>
      <point x="310" y="424"/>
      <point x="310" y="312" type="curve"/>
      <point x="353" y="323" type="line"/>
      <point x="360" y="348"/>
      <point x="399" y="371"/>
      <point x="417" y="371" type="curve" smooth="yes"/>
      <point x="430" y="371"/>
      <point x="436" y="361"/>
      <point x="436" y="328" type="curve" smooth="yes"/>
      <point x="436" y="0" type="line"/>
    </contour>
    <contour>
      <point x="165" y="0" type="line"/>
      <point x="165" y="402" type="line"/>
      <point x="165" y="402"/>
      <point x="109" y="500"/>
      <point x="109" y="500" type="curve"/>
      <point x="-2" y="500" type="line"/>
      <point x="-2" y="500"/>
      <point x="-2" y="436"/>
      <point x="-2" y="345" type="curve"/>
      <point x="-2" y="0" type="line"/>
    </contour>
    <contour>
      <point x="370" y="0" type="line"/>
      <point x="370" y="376" type="line" smooth="yes"/>
      <point x="370" y="376"/>
      <point x="359" y="403"/>
      <point x="359" y="392" type="curve" smooth="yes"/>
      <point x="359" y="475"/>
      <point x="301" y="511"/>
      <point x="241" y="511" type="curve" smooth="yes"/>
      <point x="166" y="511"/>
      <point x="100" y="424"/>
      <point x="100" y="312" type="curve"/>
      <point x="150" y="323" type="line"/>
      <point x="157" y="348"/>
      <point x="185" y="371"/>
      <point x="203" y="371" type="curve" smooth="yes"/>
      <point x="216" y="371"/>
      <point x="230" y="361"/>
      <point x="230" y="328" type="curve" smooth="yes"/>
      <point x="230" y="0" type="line"/>
    </contour>
  </outline>
</glyph>
<glyph name="n" format="1">
  <advance width="600"/>
  <unicode hex="006E"/>
  <outline>
    <contour>
      <point x="238" y="303" type="line"/>
      <point x="251" y="336"/>
      <point x="268" y="371"/>
      <point x="322" y="371" type="curve" smooth="yes"/>
      <point x="362" y="371"/>
      <point x="372" y="342"/>
      <point x="372" y="295" type="curve" smooth="yes"/>
      <point x="372" y="0" type="line"/>
      <point x="551" y="0" type="line"/>
      <point x="551" y="282" type="line" smooth="yes"/>
      <point x="551" y="445"/>
      <point x="449" y="511"/>
      <point x="342" y="511" type="curve" smooth="yes"/>
      <point x="229" y="511"/>
      <point x="166" y="424"/>
      <point x="166" y="312" type="curve"/>
    </contour>
    <contour>
      <point x="73" y="500" type="line"/>
      <point x="73" y="500"/>
      <point x="73" y="436"/>
      <point x="73" y="345" type="curve"/>
      <point x="73" y="0" type="line"/>
      <point x="252" y="0" type="line"/>
      <point x="252" y="402" type="line"/>
      <point x="252" y="402"/>
      <point x="189" y="500"/>
      <point x="189" y="500" type="curve"/>
    </contour>
  </outline>
</glyph>
<glyph name="o" format="1">
  <advance width="600"/>
  <unicode hex="006F"/>
  <outline>
    <contour>
      <point x="433" y="-11"/>
      <point x="570" y="58"/>
      <point x="570" y="251" type="curve" smooth="yes"/>
      <point x="570" y="443"/>
      <point x="433" y="512"/>
      <point x="303" y="512" type="curve" smooth="yes"/>
      <point x="172" y="512"/>
      <point x="35" y="443"/>
      <point x="35" y="251" type="curve" smooth="yes"/>
      <point x="35" y="58"/>
      <point x="172" y="-11"/>
      <point x="303" y="-11" type="curve" smooth="yes"/>
    </contour>
    <contour>
      <point x="283" y="129"/>
      <point x="219" y="131"/>
      <point x="219" y="251" type="curve" smooth="yes"/>
      <point x="219" y="370"/>
      <point x="283" y="372"/>
      <point x="303" y="372" type="curve" smooth="yes"/>
      <point x="322" y="372"/>
      <point x="386" y="370"/>
      <point x="386" y="251" type="curve" smooth="yes"/>
      <point x="386" y="131"/>
      <point x="322" y="129"/>
      <point x="303" y="129" type="curve" smooth="yes"/>
    </contour>
  </outline>
</glyph>
<glyph name="p" format="1">
  <advance width="600"/>
  <unicode hex="0070"/>
  <outline>
    <contour>
      <point x="64" y="-200" type="line"/>
      <point x="243" y="-200" type="line"/>
      <point x="243" y="429" type="line"/>
      <point x="180" y="500" type="line"/>
      <point x="64" y="500" type="line"/>
    </contour>
    <contour>
      <point x="169" y="96"/>
      <point x="226" y="-11"/>
      <point x="335" y="-11" type="curve" smooth="yes"/>
      <point x="475" y="-11"/>
      <point x="554" y="66"/>
      <point x="554" y="249" type="curve"/>
      <point x="375" y="249" type="line"/>
      <point x="375" y="149"/>
      <point x="335" y="129"/>
      <point x="286" y="129" type="curve" smooth="yes"/>
      <point x="233" y="129"/>
      <point x="226" y="149"/>
      <point x="222" y="192" type="curve"/>
      <point x="169" y="208" type="line"/>
    </contour>
    <contour>
      <point x="222" y="296" type="line"/>
      <point x="225" y="339"/>
      <point x="243" y="372"/>
      <point x="296" y="372" type="curve" smooth="yes"/>
      <point x="345" y="372"/>
      <point x="375" y="349"/>
      <point x="375" y="249" type="curve"/>
      <point x="554" y="249" type="line"/>
      <point x="554" y="432"/>
      <point x="485" y="512"/>
      <point x="345" y="512" type="curve" smooth="yes"/>
      <point x="246" y="512"/>
      <point x="169" y="394"/>
      <point x="169" y="290" type="curve"/>
    </contour>
  </outline>
</glyph>
<glyph name="r" format="1">
  <advance width="600"/>
  <unicode hex="0072"/>
  <outline>
    <contour>
      <point x="357" y="332" type="line"/>
      <point x="370" y="365"/>
      <point x="416" y="369"/>
      <point x="469" y="369" type="curve" smooth="yes"/>
      <point x="507" y="369"/>
      <point x="539" y="351"/>
      <point x="542" y="346" type="curve"/>
      <point x="588" y="488" type="line"/>
      <point x="581" y="494"/>
      <point x="565" y="512"/>
      <point x="489" y="512" type="curve" smooth="yes"/>
      <point x="362" y="512"/>
      <point x="285" y="424"/>
      <point x="285" y="312" type="curve"/>
    </contour>
    <contour>
      <point x="501" y="0" type="line"/>
      <point x="501" y="139" type="line"/>
      <point x="103" y="139" type="line"/>
      <point x="103" y="0" type="line"/>
    </contour>
    <contour>
      <point x="371" y="0" type="line"/>
      <point x="371" y="402" type="line"/>
      <point x="308" y="500" type="line"/>
      <point x="192" y="500" type="line"/>
      <point x="192" y="345" type="line"/>
      <point x="192" y="0" type="line"/>
    </contour>
    <contour>
      <point x="262" y="361" type="line"/>
      <point x="262" y="500" type="line"/>
      <point x="103" y="500" type="line"/>
      <point x="103" y="361" type="line"/>
    </contour>
  </outline>
</glyph>
<glyph name="s" format="1">
  <advance width="600"/>
  <unicode hex="0073"/>
  <outline>
    <contour>
      <point x="445" y="-11"/>
      <point x="546" y="41"/>
      <point x="545" y="149" type="curve" smooth="yes"/>
      <point x="545" y="278"/>
      <point x="372" y="308"/>
      <point x="300" y="327" type="curve" smooth="yes"/>
      <point x="267" y="335"/>
      <point x="241" y="342"/>
      <point x="241" y="360" type="curve" smooth="yes"/>
      <point x="241" y="374"/>
      <point x="271" y="388"/>
      <point x="320" y="386" type="curve" smooth="yes"/>
      <point x="368" y="385"/>
      <point x="397" y="363"/>
      <point x="420" y="327" type="curve"/>
      <point x="541" y="409" type="line"/>
      <point x="498" y="475"/>
      <point x="430" y="512"/>
      <point x="311" y="512" type="curve" smooth="yes"/>
      <point x="183" y="512"/>
      <point x="76" y="457"/>
      <point x="75" y="369" type="curve" smooth="yes"/>
      <point x="73" y="260"/>
      <point x="191" y="217"/>
      <point x="287" y="196" type="curve" smooth="yes"/>
      <point x="349" y="183"/>
      <point x="377" y="171"/>
      <point x="377" y="153" type="curve" smooth="yes"/>
      <point x="377" y="136"/>
      <point x="357" y="123"/>
      <point x="311" y="123" type="curve" smooth="yes"/>
      <point x="246" y="123"/>
      <point x="197" y="147"/>
      <point x="176" y="183" type="curve"/>
      <point x="38" y="96" type="line"/>
      <point x="82" y="31"/>
      <point x="170" y="-11"/>
      <point x="302" y="-11" type="curve" smooth="yes"/>
    </contour>
  </outline>
</glyph>
<glyph name="t" format="1">
  <advance width="600"/>
  <unicode hex="0074"/>
  <outline>
    <contour>
      <point x="388" y="0" type="line"/>
      <point x="388" y="680" type="line"/>
      <point x="209" y="680" type="line"/>
      <point x="209" y="0" type="line"/>
    </contour>
    <contour>
      <point x="496" y="0" type="line"/>
      <point x="496" y="139" type="line"/>
      <point x="312" y="139" type="line"/>
      <point x="312" y="0" type="line"/>
    </contour>
    <contour>
      <point x="536" y="361" type="line"/>
      <point x="536" y="500" type="line"/>
      <point x="93" y="500" type="line"/>
      <point x="93" y="361" type="line"/>
    </contour>
  </outline>
</glyph>
<glyph name="u" format="1">
  <advance width="600"/>
  <unicode hex="0075"/>
  <outline>
    <contour>
      <point x="383" y="-10"/>
      <point x="432" y="77"/>
      <point x="432" y="189" type="curve"/>
      <point x="389" y="198" type="line"/>
      <point x="376" y="165"/>
      <point x="358" y="130"/>
      <point x="290" y="130" type="curve" smooth="yes"/>
      <point x="256" y="130"/>
      <point x="231" y="173"/>
      <point x="231" y="249" type="curve" smooth="yes"/>
      <point x="231" y="501" type="line"/>
      <point x="53" y="501" type="line"/>
      <point x="53" y="219" type="line" smooth="yes"/>
      <point x="53" y="56"/>
      <point x="126" y="-10"/>
      <point x="256" y="-10" type="curve" smooth="yes"/>
    </contour>
    <contour>
      <point x="525" y="0" type="line" smooth="yes"/>
      <point x="525" y="0"/>
      <point x="524" y="101"/>
      <point x="524" y="101" type="curve"/>
      <point x="524" y="501" type="line"/>
      <point x="346" y="501" type="line"/>
      <point x="346" y="99" type="line"/>
      <point x="346" y="99"/>
      <point x="399" y="0"/>
      <point x="399" y="0" type="curve"/>
    </contour>
  </outline>
</glyph>
<glyph name="v" format="1">
  <advance width="600"/>
  <unicode hex="0076"/>
  <outline>
    <contour>
      <point x="55" y="500" type="line"/>
      <point x="177" y="0" type="line"/>
      <point x="336" y="0" type="line"/>
      <point x="238" y="500" type="line"/>
    </contour>
    <contour>
      <point x="366" y="500" type="line"/>
      <point x="268" y="0" type="line"/>
      <point x="427" y="0" type="line"/>
      <point x="549" y="500" type="line"/>
    </contour>
    <contour>
      <point x="372" y="0" type="line"/>
      <point x="372" y="139" type="line"/>
      <point x="232" y="139" type="line"/>
      <point x="232" y="0" type="line"/>
    </contour>
  </outline>
</glyph>
<glyph name="w" format="1">
  <advance width="600"/>
  <unicode hex="0077"/>
  <outline>
    <contour>
      <point x="59" y="0" type="line"/>
      <point x="197" y="0" type="line"/>
      <point x="151" y="500" type="line"/>
      <point x="-18" y="500" type="line"/>
    </contour>
    <contour>
      <point x="402" y="0" type="line"/>
      <point x="539" y="0" type="line"/>
      <point x="617" y="500" type="line"/>
      <point x="448" y="500" type="line"/>
    </contour>
    <contour>
      <point x="364" y="500" type="line"/>
      <point x="235" y="500" type="line"/>
      <point x="131" y="0" type="line"/>
      <point x="243" y="0" type="line"/>
    </contour>
    <contour>
      <point x="468" y="0" type="line"/>
      <point x="364" y="500" type="line"/>
      <point x="235" y="500" type="line"/>
      <point x="356" y="0" type="line"/>
    </contour>
  </outline>
</glyph>
<glyph name="x" format="1">
  <advance width="600"/>
  <unicode hex="0078"/>
  <outline>
    <contour>
      <point x="282" y="273" type="line"/>
      <point x="419" y="240" type="line"/>
      <point x="584" y="500" type="line"/>
      <point x="405" y="500" type="line"/>
    </contour>
    <contour>
      <point x="274" y="183" type="line"/>
      <point x="366" y="183" type="line"/>
      <point x="366" y="323" type="line"/>
      <point x="274" y="323" type="line"/>
    </contour>
    <contour>
      <point x="584" y="0" type="line"/>
      <point x="414" y="273" type="line"/>
      <point x="258" y="273" type="line"/>
      <point x="405" y="0" type="line"/>
    </contour>
    <contour>
      <point x="224" y="323" type="line"/>
      <point x="224" y="183" type="line"/>
      <point x="316" y="183" type="line"/>
      <point x="316" y="323" type="line"/>
    </contour>
    <contour>
      <point x="6" y="500" type="line"/>
      <point x="171" y="240" type="line"/>
      <point x="308" y="273" type="line"/>
      <point x="185" y="500" type="line"/>
    </contour>
    <contour>
      <point x="332" y="273" type="line"/>
      <point x="176" y="273" type="line"/>
      <point x="6" y="0" type="line"/>
      <point x="185" y="0" type="line"/>
    </contour>
  </outline>
</glyph>
<glyph name="y" format="1">
  <advance width="600"/>
  <unicode hex="0079"/>
  <outline>
    <contour>
      <point x="59" y="500" type="line"/>
      <point x="241" y="0" type="line"/>
      <point x="351" y="105" type="line"/>
      <point x="252" y="500" type="line"/>
    </contour>
    <contour>
      <point x="393" y="500" type="line"/>
      <point x="294" y="105" type="line"/>
      <point x="414" y="0" type="line"/>
      <point x="586" y="500" type="line"/>
    </contour>
    <contour>
      <point x="76" y="-172" type="line"/>
      <point x="83" y="-175"/>
      <point x="120" y="-192"/>
      <point x="182" y="-192" type="curve"/>
      <point x="316" y="-192"/>
      <point x="370" y="-118"/>
      <point x="414" y="0" type="curve"/>
      <point x="325" y="105" type="line"/>
      <point x="243" y="11" type="line"/>
      <point x="217" y="-54"/>
      <point x="183" y="-49"/>
      <point x="164" y="-49" type="curve"/>
      <point x="151" y="-49"/>
      <point x="128" y="-40"/>
      <point x="129" y="-41" type="curve"/>
    </contour>
  </outline>
</glyph>
<glyph name="z" format="1">
  <advance width="600"/>
  <unicode hex="007A"/>
  <outline>
    <contour>
      <point x="300" y="139" type="line"/>
      <point x="508" y="361" type="line"/>
      <point x="309" y="361" type="line"/>
      <point x="99" y="139" type="line"/>
    </contour>
    <contour>
      <point x="107" y="361" type="line"/>
      <point x="508" y="361" type="line"/>
      <point x="508" y="500" type="line"/>
      <point x="107" y="500" type="line"/>
    </contour>
    <contour>
      <point x="99" y="0" type="line"/>
      <point x="520" y="0" type="line"/>
      <point x="520" y="139" type="line"/>
      <point x="99" y="139" type="line"/>
    </contour>
  </outline>
</glyph>
<glyph name="braceleft" format="1">
  <advance width="600"/>
  <unicode hex="007B"/>
  <outline>
    <contour>
      <point x="236" y="315" type="line" smooth="yes"/>
      <point x="302" y="315"/>
      <point x="387" y="318"/>
      <point x="387" y="436" type="curve" smooth="yes"/>
      <point x="387" y="563" type="line" smooth="yes"/>
      <point x="387" y="649"/>
      <point x="415" y="681"/>
      <point x="459" y="681" type="curve" smooth="yes"/>
      <point x="496" y="681" type="line"/>
      <point x="496" y="821" type="line"/>
      <point x="423" y="821" type="line" smooth="yes"/>
      <point x="307" y="821"/>
      <point x="222" y="757"/>
      <point x="222" y="639" type="curve" smooth="yes"/>
      <point x="222" y="476" type="line" smooth="yes"/>
      <point x="222" y="419"/>
      <point x="204" y="387"/>
      <point x="157" y="387" type="curve" smooth="yes"/>
      <point x="142" y="387" type="line"/>
      <point x="142" y="315" type="line"/>
    </contour>
    <contour>
      <point x="142" y="246" type="line"/>
      <point x="157" y="246" type="line" smooth="yes"/>
      <point x="204" y="246"/>
      <point x="222" y="214"/>
      <point x="222" y="157" type="curve" smooth="yes"/>
      <point x="222" y="-6" type="line" smooth="yes"/>
      <point x="222" y="-124"/>
      <point x="307" y="-188"/>
      <point x="423" y="-188" type="curve" smooth="yes"/>
      <point x="496" y="-188" type="line"/>
      <point x="496" y="-48" type="line"/>
      <point x="459" y="-48" type="line" smooth="yes"/>
      <point x="415" y="-48"/>
      <point x="387" y="-16"/>
      <point x="387" y="70" type="curve" smooth="yes"/>
      <point x="387" y="197" type="line" smooth="yes"/>
      <point x="387" y="315"/>
      <point x="302" y="318"/>
      <point x="236" y="318" type="curve" smooth="yes"/>
      <point x="142" y="318" type="line"/>
    </contour>
  </outline>
</glyph>
<glyph name="bar" format="1">
  <advance width="600"/>
  <unicode hex="007C"/>
  <outline>
    <contour>
      <point x="226" y="-130" type="line"/>
      <point x="369" y="-130" type="line"/>
      <point x="369" y="800" type="line"/>
      <point x="226" y="800" type="line"/>
    </contour>
  </outline>
</glyph>
<glyph name="cent" format="1">
  <advance width="600"/>
  <unicode hex="00A2"/>
  <outline>
    <contour>
      <point x="418" y="85"/>
      <point x="502" y="131"/>
      <point x="550" y="213" type="curve"/>
      <point x="407" y="287" type="line"/>
      <point x="391" y="261"/>
      <point x="363" y="225"/>
      <point x="304" y="225" type="curve" smooth="yes"/>
      <point x="235" y="225"/>
      <point x="203" y="249"/>
      <point x="203" y="347" type="curve" smooth="yes"/>
      <point x="203" y="447"/>
      <point x="235" y="468"/>
      <point x="304" y="468" type="curve" smooth="yes"/>
      <point x="362" y="468"/>
      <point x="389" y="433"/>
      <point x="405" y="399" type="curve"/>
      <point x="548" y="473" type="line"/>
      <point x="500" y="563"/>
      <point x="417" y="608"/>
      <point x="307" y="608" type="curve" smooth="yes"/>
      <point x="127" y="608"/>
      <point x="19" y="540"/>
      <point x="19" y="347" type="curve" smooth="yes"/>
      <point x="19" y="156"/>
      <point x="127" y="85"/>
      <point x="307" y="85" type="curve" smooth="yes"/>
    </contour>
    <contour>
      <point x="373" y="0" type="line"/>
      <point x="373" y="120" type="line"/>
      <point x="212" y="120" type="line"/>
      <point x="212" y="0" type="line"/>
    </contour>
    <contour>
      <point x="373" y="580" type="line"/>
      <point x="373" y="700" type="line"/>
      <point x="212" y="700" type="line"/>
      <point x="212" y="580" type="line"/>
    </contour>
  </outline>
</glyph>
<glyph name="sterling" format="1">
  <advance width="600"/>
  <unicode hex="00A3"/>
  <outline>
    <contour>
      <point x="265" y="145"/>
      <point x="323" y="183"/>
      <point x="308" y="287" type="curve" smooth="yes"/>
      <point x="299" y="349"/>
      <point x="265" y="440"/>
      <point x="265" y="505" type="curve" smooth="yes"/>
      <point x="265" y="533"/>
      <point x="281" y="566"/>
      <point x="345" y="566" type="curve" smooth="yes"/>
      <point x="412" y="566"/>
      <point x="427" y="548"/>
      <point x="441" y="518" type="curve"/>
      <point x="570" y="591" type="line"/>
      <point x="543" y="652"/>
      <point x="479" y="706"/>
      <point x="345" y="706" type="curve" smooth="yes"/>
      <point x="213" y="706"/>
      <point x="80" y="626"/>
      <point x="80" y="505" type="curve" smooth="yes"/>
      <point x="80" y="426"/>
      <point x="119" y="347"/>
      <point x="132" y="286" type="curve" smooth="yes"/>
      <point x="150" y="200"/>
      <point x="95" y="120"/>
      <point x="47" y="82" type="curve"/>
      <point x="198" y="106" type="line"/>
    </contour>
    <contour>
      <point x="96" y="-20"/>
      <point x="169" y="11"/>
      <point x="261" y="10" type="curve" smooth="yes"/>
      <point x="315" y="9"/>
      <point x="357" y="-10"/>
      <point x="423" y="-13" type="curve" smooth="yes"/>
      <point x="502" y="-16"/>
      <point x="554" y="1"/>
      <point x="554" y="1" type="curve"/>
      <point x="513" y="140" type="line"/>
      <point x="513" y="140"/>
      <point x="491" y="119"/>
      <point x="423" y="122" type="curve" smooth="yes"/>
      <point x="367" y="125"/>
      <point x="363" y="140"/>
      <point x="298" y="142" type="curve" smooth="yes"/>
      <point x="240" y="144"/>
      <point x="219" y="121"/>
      <point x="204" y="110" type="curve"/>
      <point x="204" y="110"/>
      <point x="50" y="82"/>
      <point x="47" y="82" type="curve"/>
      <point x="85" y="-23" type="line"/>
    </contour>
    <contour>
      <point x="459" y="286" type="line"/>
      <point x="459" y="410" type="line"/>
      <point x="27" y="410" type="line"/>
      <point x="27" y="286" type="line"/>
    </contour>
  </outline>
</glyph>
<glyph name="currency" format="1">
  <advance width="600"/>
  <unicode hex="00A4"/>
  <outline>
    <contour>
      <point x="437" y="169"/>
      <point x="535" y="232"/>
      <point x="535" y="370" type="curve" smooth="yes"/>
      <point x="535" y="508"/>
      <point x="437" y="570"/>
      <point x="303" y="570" type="curve" smooth="yes"/>
      <point x="168" y="570"/>
      <point x="70" y="508"/>
      <point x="70" y="370" type="curve" smooth="yes"/>
      <point x="70" y="232"/>
      <point x="168" y="169"/>
      <point x="303" y="169" type="curve" smooth="yes"/>
    </contour>
    <contour>
      <point x="218" y="205" type="line"/>
      <point x="139" y="284" type="line"/>
      <point x="25" y="173" type="line"/>
      <point x="104" y="91" type="line"/>
    </contour>
    <contour>
      <point x="246" y="301"/>
      <point x="231" y="328"/>
      <point x="231" y="370" type="curve" smooth="yes"/>
      <point x="231" y="411"/>
      <point x="246" y="438"/>
      <point x="303" y="438" type="curve" smooth="yes"/>
      <point x="359" y="438"/>
      <point x="374" y="411"/>
      <point x="374" y="370" type="curve" smooth="yes"/>
      <point x="374" y="328"/>
      <point x="359" y="301"/>
      <point x="303" y="301" type="curve" smooth="yes"/>
    </contour>
    <contour>
      <point x="580" y="175" type="line"/>
      <point x="466" y="286" type="line"/>
      <point x="387" y="207" type="line"/>
      <point x="501" y="93" type="line"/>
    </contour>
    <contour>
      <point x="218" y="535" type="line"/>
      <point x="104" y="649" type="line"/>
      <point x="25" y="567" type="line"/>
      <point x="139" y="456" type="line"/>
    </contour>
    <contour>
      <point x="580" y="565" type="line"/>
      <point x="501" y="647" type="line"/>
      <point x="387" y="533" type="line"/>
      <point x="466" y="454" type="line"/>
    </contour>
  </outline>
</glyph>
<glyph name="yen" format="1">
  <advance width="600"/>
  <unicode hex="00A5"/>
  <outline>
    <contour>
      <point x="300" y="449" type="line"/>
      <point x="390" y="297" type="line"/>
      <point x="558" y="700" type="line"/>
      <point x="379" y="700" type="line"/>
    </contour>
    <contour>
      <point x="42" y="700" type="line"/>
      <point x="213" y="292" type="line"/>
      <point x="300" y="449" type="line"/>
      <point x="221" y="700" type="line"/>
    </contour>
    <contour>
      <point x="390" y="0" type="line"/>
      <point x="390" y="449" type="line"/>
      <point x="211" y="449" type="line"/>
      <point x="211" y="0" type="line"/>
    </contour>
    <contour>
      <point x="87" y="252" type="line"/>
      <point x="514" y="252" type="line"/>
      <point x="514" y="377" type="line"/>
      <point x="87" y="377" type="line"/>
    </contour>
    <contour>
      <point x="87" y="95" type="line"/>
      <point x="514" y="95" type="line"/>
      <point x="514" y="220" type="line"/>
      <point x="87" y="220" type="line"/>
    </contour>
  </outline>
</glyph>
<glyph name="section" format="1">
  <advance width="600"/>
  <unicode hex="00A7"/>
  <outline>
    <contour>
      <point x="275" y="467" type="line"/>
      <point x="192" y="455"/>
      <point x="53" y="392"/>
      <point x="53" y="297" type="curve" smooth="yes"/>
      <point x="53" y="176"/>
      <point x="213" y="139"/>
      <point x="277" y="121" type="curve" smooth="yes"/>
      <point x="336" y="104"/>
      <point x="383" y="79"/>
      <point x="383" y="60" type="curve" smooth="yes"/>
      <point x="383" y="33"/>
      <point x="364" y="24"/>
      <point x="291" y="24" type="curve" smooth="yes"/>
      <point x="214" y="24"/>
      <point x="182" y="63"/>
      <point x="172" y="97" type="curve"/>
      <point x="34" y="31" type="line"/>
      <point x="75" y="-51"/>
      <point x="163" y="-109"/>
      <point x="291" y="-109" type="curve" smooth="yes"/>
      <point x="402" y="-109"/>
      <point x="558" y="-78"/>
      <point x="558" y="54" type="curve" smooth="yes"/>
      <point x="558" y="186"/>
      <point x="368" y="231"/>
      <point x="311" y="247" type="curve" smooth="yes"/>
      <point x="264" y="260"/>
      <point x="230" y="284"/>
      <point x="230" y="311" type="curve" smooth="yes"/>
      <point x="230" y="367"/>
      <point x="301" y="396"/>
      <point x="353" y="396" type="curve" smooth="yes"/>
      <point x="362" y="396"/>
      <point x="370" y="395"/>
      <point x="379" y="394" type="curve"/>
    </contour>
    <contour>
      <point x="404" y="134" type="line"/>
      <point x="482" y="153"/>
      <point x="558" y="214"/>
      <point x="558" y="302" type="curve" smooth="yes"/>
      <point x="558" y="449"/>
      <point x="354" y="481"/>
      <point x="297" y="497" type="curve" smooth="yes"/>
      <point x="250" y="510"/>
      <point x="235" y="516"/>
      <point x="235" y="544" type="curve" smooth="yes"/>
      <point x="235" y="567"/>
      <point x="262" y="573"/>
      <point x="310" y="573" type="curve" smooth="yes"/>
      <point x="355" y="573"/>
      <point x="386" y="564"/>
      <point x="408" y="511" type="curve"/>
      <point x="545" y="581" type="line"/>
      <point x="504" y="664"/>
      <point x="421" y="706"/>
      <point x="310" y="706" type="curve" smooth="yes"/>
      <point x="222" y="706"/>
      <point x="63" y="670"/>
      <point x="63" y="555" type="curve" smooth="yes"/>
      <point x="63" y="420"/>
      <point x="227" y="377"/>
      <point x="291" y="359" type="curve" smooth="yes"/>
      <point x="350" y="342"/>
      <point x="383" y="350"/>
      <point x="383" y="288" type="curve" smooth="yes"/>
      <point x="383" y="237"/>
      <point x="336" y="189"/>
      <point x="275" y="182" type="curve"/>
    </contour>
  </outline>
</glyph>
<glyph name="dieresis" format="1">
  <advance width="600"/>
  <unicode hex="00A8"/>
  <outline>
    <contour>
      <point x="237" y="615"/>
      <point x="278" y="656"/>
      <point x="278" y="708" type="curve" smooth="yes"/>
      <point x="278" y="761"/>
      <point x="237" y="802"/>
      <point x="185" y="802" type="curve" smooth="yes"/>
      <point x="133" y="802"/>
      <point x="92" y="761"/>
      <point x="92" y="708" type="curve" smooth="yes"/>
      <point x="92" y="656"/>
      <point x="133" y="615"/>
      <point x="185" y="615" type="curve" smooth="yes"/>
    </contour>
    <contour>
      <point x="468" y="615"/>
      <point x="509" y="656"/>
      <point x="509" y="708" type="curve" smooth="yes"/>
      <point x="509" y="761"/>
      <point x="468" y="802"/>
      <point x="416" y="802" type="curve" smooth="yes"/>
      <point x="364" y="802"/>
      <point x="323" y="761"/>
      <point x="323" y="708" type="curve" smooth="yes"/>
      <point x="323" y="656"/>
      <point x="364" y="615"/>
      <point x="416" y="615" type="curve" smooth="yes"/>
    </contour>
  </outline>
</glyph>
<glyph name="copyright" format="1">
  <advance width="600"/>
  <unicode hex="00A9"/>
  <outline>
    <contour>
      <point x="433" y="36"/>
      <point x="575" y="107"/>
      <point x="575" y="349" type="curve" smooth="yes"/>
      <point x="575" y="590"/>
      <point x="433" y="661"/>
      <point x="297" y="661" type="curve" smooth="yes"/>
      <point x="160" y="661"/>
      <point x="18" y="590"/>
      <point x="18" y="349" type="curve" smooth="yes"/>
      <point x="18" y="107"/>
      <point x="160" y="36"/>
      <point x="297" y="36" type="curve" smooth="yes"/>
    </contour>
    <contour>
      <point x="209" y="140"/>
      <point x="124" y="168"/>
      <point x="124" y="349" type="curve" smooth="yes"/>
      <point x="124" y="529"/>
      <point x="209" y="557"/>
      <point x="297" y="557" type="curve" smooth="yes"/>
      <point x="384" y="557"/>
      <point x="468" y="529"/>
      <point x="468" y="349" type="curve" smooth="yes"/>
      <point x="468" y="168"/>
      <point x="384" y="140"/>
      <point x="297" y="140" type="curve" smooth="yes"/>
    </contour>
    <contour>
      <point x="357" y="330" type="line"/>
      <point x="355" y="313"/>
      <point x="348" y="286"/>
      <point x="307" y="286" type="curve" smooth="yes"/>
      <point x="272" y="286"/>
      <point x="265" y="316"/>
      <point x="265" y="348" type="curve" smooth="yes"/>
      <point x="265" y="381"/>
      <point x="272" y="410"/>
      <point x="307" y="410" type="curve" smooth="yes"/>
      <point x="347" y="410"/>
      <point x="353" y="384"/>
      <point x="356" y="361" type="curve"/>
      <point x="440" y="402" type="line"/>
      <point x="427" y="441"/>
      <point x="400" y="502"/>
      <point x="309" y="502" type="curve" smooth="yes"/>
      <point x="228" y="502"/>
      <point x="164" y="462"/>
      <point x="164" y="348" type="curve" smooth="yes"/>
      <point x="164" y="235"/>
      <point x="228" y="194"/>
      <point x="309" y="194" type="curve" smooth="yes"/>
      <point x="400" y="194"/>
      <point x="428" y="255"/>
      <point x="441" y="290" type="curve"/>
    </contour>
  </outline>
</glyph>
<glyph name="registered" format="1">
  <advance width="600"/>
  <unicode hex="00AE"/>
  <outline>
    <contour>
      <point x="447" y="156"/>
      <point x="575" y="241"/>
      <point x="575" y="439" type="curve" smooth="yes"/>
      <point x="575" y="636"/>
      <point x="447" y="721"/>
      <point x="297" y="721" type="curve" smooth="yes"/>
      <point x="146" y="721"/>
      <point x="18" y="636"/>
      <point x="18" y="439" type="curve" smooth="yes"/>
      <point x="18" y="241"/>
      <point x="146" y="156"/>
      <point x="297" y="156" type="curve" smooth="yes"/>
    </contour>
    <contour>
      <point x="206" y="260"/>
      <point x="124" y="288"/>
      <point x="124" y="439" type="curve" smooth="yes"/>
      <point x="124" y="589"/>
      <point x="209" y="617"/>
      <point x="297" y="617" type="curve" smooth="yes"/>
      <point x="384" y="617"/>
      <point x="468" y="589"/>
      <point x="468" y="439" type="curve" smooth="yes"/>
      <point x="468" y="288"/>
      <point x="384" y="260"/>
      <point x="297" y="260" type="curve" smooth="yes"/>
    </contour>
    <contour>
      <point x="304" y="511" type="line" smooth="yes"/>
      <point x="326" y="511"/>
      <point x="328" y="504"/>
      <point x="328" y="493" type="curve" smooth="yes"/>
      <point x="328" y="486"/>
      <point x="326" y="470"/>
      <point x="304" y="470" type="curve" smooth="yes"/>
      <point x="282" y="470" type="line"/>
      <point x="282" y="511" type="line"/>
    </contour>
    <contour>
      <point x="352" y="396"/>
      <point x="410" y="410"/>
      <point x="410" y="499" type="curve" smooth="yes"/>
      <point x="410" y="573"/>
      <point x="352" y="585"/>
      <point x="305" y="585" type="curve" smooth="yes"/>
      <point x="201" y="585" type="line"/>
      <point x="201" y="294" type="line"/>
      <point x="282" y="294" type="line"/>
      <point x="282" y="396" type="line"/>
      <point x="305" y="396" type="line" smooth="yes"/>
    </contour>
    <contour>
      <point x="417" y="294" type="line"/>
      <point x="354" y="409" type="line"/>
      <point x="270" y="409" type="line"/>
      <point x="330" y="294" type="line"/>
    </contour>
  </outline>
</glyph>
<glyph name="macron" format="1">
  <advance width="600"/>
  <unicode hex="00AF"/>
  <outline>
    <contour>
      <point x="111" y="646" type="line"/>
      <point x="488" y="646" type="line"/>
      <point x="488" y="755" type="line"/>
      <point x="111" y="755" type="line"/>
    </contour>
  </outline>
</glyph>
<glyph name="degree" format="1">
  <advance width="600"/>
  <unicode hex="00B0"/>
  <outline>
    <contour>
      <point x="348" y="474"/>
      <point x="425" y="551"/>
      <point x="425" y="644" type="curve" smooth="yes"/>
      <point x="425" y="736"/>
      <point x="348" y="813"/>
      <point x="256" y="813" type="curve" smooth="yes"/>
      <point x="163" y="813"/>
      <point x="86" y="736"/>
      <point x="86" y="644" type="curve" smooth="yes"/>
      <point x="86" y="551"/>
      <point x="163" y="474"/>
      <point x="256" y="474" type="curve" smooth="yes"/>
    </contour>
    <contour>
      <point x="233" y="601"/>
      <point x="213" y="621"/>
      <point x="213" y="644" type="curve" smooth="yes"/>
      <point x="213" y="666"/>
      <point x="233" y="686"/>
      <point x="256" y="686" type="curve" smooth="yes"/>
      <point x="278" y="686"/>
      <point x="298" y="666"/>
      <point x="298" y="644" type="curve" smooth="yes"/>
      <point x="298" y="621"/>
      <point x="278" y="601"/>
      <point x="256" y="601" type="curve" smooth="yes"/>
    </contour>
  </outline>
</glyph>
<glyph name="plusminus" format="1">
  <advance width="600"/>
  <unicode hex="00B1"/>
  <outline>
    <contour>
      <point x="99" y="313" type="line"/>
      <point x="506" y="313" type="line"/>
      <point x="506" y="433" type="line"/>
      <point x="99" y="433" type="line"/>
    </contour>
    <contour>
      <point x="373" y="219" type="line"/>
      <point x="373" y="526" type="line"/>
      <point x="233" y="526" type="line"/>
      <point x="233" y="219" type="line"/>
    </contour>
    <contour>
      <point x="99" y="65" type="line"/>
      <point x="506" y="65" type="line"/>
      <point x="506" y="185" type="line"/>
      <point x="99" y="185" type="line"/>
    </contour>
  </outline>
</glyph>
<glyph name="acute" format="1">
  <advance width="600"/>
  <unicode hex="00B4"/>
  <outline>
    <contour>
      <point x="313" y="609" type="line"/>
      <point x="471" y="765" type="line"/>
      <point x="279" y="765" type="line"/>
      <point x="161" y="609" type="line"/>
    </contour>
  </outline>
</glyph>
<glyph name="paragraph" format="1">
  <advance width="600"/>
  <unicode hex="00B6"/>
  <outline>
    <contour>
      <point x="228" y="263" type="line"/>
      <point x="228" y="-120" type="line"/>
      <point x="369" y="-120" type="line"/>
      <point x="369" y="700" type="line"/>
      <point x="225" y="700" type="line" smooth="yes"/>
      <point x="131" y="700"/>
      <point x="17" y="645"/>
      <point x="17" y="485" type="curve" smooth="yes"/>
      <point x="17" y="316"/>
      <point x="131" y="263"/>
      <point x="205" y="263" type="curve" smooth="yes"/>
    </contour>
    <contour>
      <point x="552" y="-120" type="line"/>
      <point x="552" y="700" type="line"/>
      <point x="412" y="700" type="line"/>
      <point x="412" y="-120" type="line"/>
    </contour>
    <contour>
      <point x="258" y="575" type="line"/>
      <point x="506" y="575" type="line"/>
      <point x="506" y="700" type="line"/>
      <point x="258" y="700" type="line"/>
    </contour>
  </outline>
</glyph>
<glyph name="cedilla" format="1">
  <advance width="600"/>
  <unicode hex="00B8"/>
  <outline>
    <contour>
      <point x="171" y="-77" type="line"/>
      <point x="287" y="-96" type="line"/>
      <point x="345" y="0" type="line"/>
      <point x="197" y="0" type="line"/>
    </contour>
    <contour>
      <point x="297" y="-80"/>
      <point x="323" y="-87"/>
      <point x="322" y="-103" type="curve" smooth="yes"/>
      <point x="321" y="-130"/>
      <point x="230" y="-124"/>
      <point x="159" y="-112" type="curve"/>
      <point x="130" y="-192" type="line"/>
      <point x="265" y="-219"/>
      <point x="447" y="-200"/>
      <point x="448" y="-95" type="curve" smooth="yes"/>
      <point x="449" y="-13"/>
      <point x="325" y="-15"/>
      <point x="303" y="-41" type="curve"/>
      <point x="287" y="-96" type="line"/>
    </contour>
  </outline>
</glyph>
<glyph name="AE" format="1">
  <advance width="600"/>
  <unicode hex="00C6"/>
  <outline>
    <contour>
      <point x="464" y="0" type="line"/>
      <point x="464" y="700" type="line"/>
      <point x="285" y="700" type="line"/>
      <point x="285" y="0" type="line"/>
    </contour>
    <contour>
      <point x="347" y="0" type="line"/>
      <point x="605" y="0" type="line"/>
      <point x="605" y="139" type="line"/>
      <point x="347" y="139" type="line"/>
    </contour>
    <contour>
      <point x="347" y="274" type="line"/>
      <point x="582" y="274" type="line"/>
      <point x="582" y="414" type="line"/>
      <point x="347" y="414" type="line"/>
    </contour>
    <contour>
      <point x="347" y="561" type="line"/>
      <point x="605" y="561" type="line"/>
      <point x="605" y="700" type="line"/>
      <point x="347" y="700" type="line"/>
    </contour>
    <contour>
      <point x="-30" y="0" type="line"/>
      <point x="165" y="0" type="line"/>
      <point x="361" y="700" type="line"/>
      <point x="184" y="700" type="line"/>
    </contour>
    <contour>
      <point x="208" y="561" type="line"/>
      <point x="325" y="561" type="line"/>
      <point x="343" y="700" type="line"/>
      <point x="225" y="700" type="line"/>
    </contour>
    <contour>
      <point x="123" y="138" type="line"/>
      <point x="335" y="138" type="line"/>
      <point x="352" y="277" type="line"/>
      <point x="140" y="277" type="line"/>
    </contour>
  </outline>
</glyph>
<glyph name="Thorn" format="1">
  <advance width="600"/>
  <unicode hex="00DE"/>
  <outline>
    <contour>
      <point x="251" y="700" type="line"/>
      <point x="72" y="700" type="line"/>
      <point x="72" y="0" type="line"/>
      <point x="251" y="0" type="line"/>
    </contour>
    <contour>
      <point x="170" y="128" type="line"/>
      <point x="296" y="128" type="line" smooth="yes"/>
      <point x="380" y="128"/>
      <point x="539" y="146"/>
      <point x="539" y="367" type="curve" smooth="yes"/>
      <point x="539" y="578"/>
      <point x="380" y="588"/>
      <point x="296" y="588" type="curve" smooth="yes"/>
      <point x="168" y="588" type="line"/>
      <point x="168" y="449" type="line"/>
      <point x="266" y="449" type="line"/>
      <point x="331" y="449"/>
      <point x="359" y="444"/>
      <point x="359" y="367" type="curve" smooth="yes"/>
      <point x="359" y="280"/>
      <point x="331" y="267"/>
      <point x="266" y="267" type="curve" smooth="yes"/>
      <point x="170" y="267" type="line"/>
    </contour>
  </outline>
</glyph>
<glyph name="germandbls" format="1">
  <advance width="600"/>
  <unicode hex="00DF"/>
  <outline>
    <contour>
      <point x="192" y="0" type="line"/>
      <point x="192" y="502" type="line"/>
      <point x="13" y="509" type="line"/>
      <point x="13" y="0" type="line"/>
    </contour>
    <contour>
      <point x="223" y="2" type="line"/>
      <point x="256" y="-7"/>
      <point x="291" y="-11"/>
      <point x="323" y="-11" type="curve" smooth="yes"/>
      <point x="444" y="-11"/>
      <point x="602" y="48"/>
      <point x="602" y="197" type="curve"/>
      <point x="418" y="197" type="line"/>
      <point x="418" y="159"/>
      <point x="403" y="129"/>
      <point x="323" y="129" type="curve" smooth="yes"/>
      <point x="296" y="129"/>
      <point x="270" y="134"/>
      <point x="247" y="143" type="curve"/>
    </contour>
    <contour>
      <point x="552" y="550" type="line"/>
      <point x="552" y="668"/>
      <point x="405" y="726"/>
      <point x="297" y="726" type="curve" smooth="yes"/>
      <point x="189" y="726"/>
      <point x="13" y="691"/>
      <point x="13" y="509" type="curve"/>
      <point x="192" y="502" type="line"/>
      <point x="192" y="551"/>
      <point x="233" y="586"/>
      <point x="297" y="586" type="curve" smooth="yes"/>
      <point x="354" y="586"/>
      <point x="367" y="570"/>
      <point x="367" y="536" type="curve"/>
    </contour>
    <contour>
      <point x="367" y="536" type="line"/>
      <point x="367" y="477"/>
      <point x="266" y="503"/>
      <point x="266" y="391" type="curve" smooth="yes"/>
      <point x="266" y="279"/>
      <point x="418" y="302"/>
      <point x="418" y="197" type="curve"/>
      <point x="602" y="197" type="line"/>
      <point x="602" y="350"/>
      <point x="448" y="354"/>
      <point x="448" y="391" type="curve" smooth="yes"/>
      <point x="448" y="428"/>
      <point x="552" y="436"/>
      <point x="552" y="550" type="curve"/>
    </contour>
  </outline>
</glyph>
<glyph name="ae" format="1">
  <advance width="600"/>
  <unicode hex="00E6"/>
  <outline>
    <contour>
      <point x="307" y="-11"/>
      <point x="311" y="76"/>
      <point x="311" y="76" type="curve"/>
      <point x="259" y="171" type="line"/>
      <point x="252" y="137"/>
      <point x="213" y="128"/>
      <point x="195" y="128" type="curve"/>
      <point x="196" y="128"/>
      <point x="158" y="122"/>
      <point x="158" y="153" type="curve"/>
      <point x="12" y="153" type="line"/>
      <point x="12" y="41"/>
      <point x="79" y="-11"/>
      <point x="178" y="-11" type="curve"/>
    </contour>
    <contour>
      <point x="158" y="153" type="line"/>
      <point x="158" y="197"/>
      <point x="214" y="195"/>
      <point x="232" y="195" type="curve"/>
      <point x="227" y="337" type="line"/>
      <point x="87" y="337"/>
      <point x="12" y="264"/>
      <point x="12" y="153" type="curve"/>
    </contour>
    <contour>
      <point x="320" y="195" type="line"/>
      <point x="320" y="337" type="line"/>
      <point x="227" y="337" type="line"/>
      <point x="232" y="195" type="line"/>
    </contour>
    <contour>
      <point x="339" y="326" type="line"/>
      <point x="339" y="417"/>
      <point x="281" y="512"/>
      <point x="195" y="512" type="curve"/>
      <point x="106" y="512"/>
      <point x="49" y="486"/>
      <point x="-14" y="438" type="curve"/>
      <point x="76" y="331" type="line"/>
      <point x="100" y="353"/>
      <point x="143" y="372"/>
      <point x="190" y="372" type="curve"/>
      <point x="233" y="372"/>
      <point x="242" y="357"/>
      <point x="242" y="312" type="curve"/>
    </contour>
    <contour>
      <point x="349" y="209" type="line"/>
      <point x="349" y="332" type="line"/>
      <point x="242" y="312" type="line"/>
      <point x="242" y="209" type="line"/>
    </contour>
    <contour>
      <point x="481" y="170" type="line"/>
      <point x="476" y="155"/>
      <point x="470" y="129"/>
      <point x="434" y="129" type="curve" smooth="yes"/>
      <point x="409" y="129"/>
      <point x="394" y="141"/>
      <point x="394" y="251" type="curve" smooth="yes"/>
      <point x="394" y="351"/>
      <point x="393" y="372"/>
      <point x="428" y="372" type="curve" smooth="yes"/>
      <point x="443" y="372"/>
      <point x="453" y="374"/>
      <point x="453" y="335" type="curve"/>
      <point x="590" y="195" type="line"/>
      <point x="600" y="365"/>
      <point x="560" y="512"/>
      <point x="439" y="512" type="curve" smooth="yes"/>
      <point x="322" y="512"/>
      <point x="240" y="444"/>
      <point x="240" y="247" type="curve" smooth="yes"/>
      <point x="240" y="54"/>
      <point x="318" y="-11"/>
      <point x="432" y="-11" type="curve" smooth="yes"/>
      <point x="496" y="-11"/>
      <point x="568" y="35"/>
      <point x="598" y="116" type="curve"/>
    </contour>
    <contour>
      <point x="347" y="195" type="line"/>
      <point x="590" y="195" type="line"/>
      <point x="530" y="335" type="line"/>
      <point x="347" y="335" type="line"/>
    </contour>
  </outline>
</glyph>
<glyph name="eth" format="1">
  <advance width="600"/>
  <unicode hex="00F0"/>
  <outline>
    <contour>
      <point x="238" y="129"/>
      <point x="211" y="178"/>
      <point x="211" y="251" type="curve" smooth="yes"/>
      <point x="211" y="326"/>
      <point x="237" y="372"/>
      <point x="291" y="372" type="curve" smooth="yes"/>
      <point x="355" y="372"/>
      <point x="388" y="341"/>
      <point x="402" y="307" type="curve"/>
      <point x="475" y="373" type="line"/>
      <point x="427" y="463"/>
      <point x="371" y="512"/>
      <point x="280" y="512" type="curve" smooth="yes"/>
      <point x="143" y="512"/>
      <point x="27" y="447"/>
      <point x="27" y="251" type="curve" smooth="yes"/>
      <point x="27" y="57"/>
      <point x="155" y="-11"/>
      <point x="292" y="-11" type="curve"/>
      <point x="292" y="129" type="line"/>
    </contour>
    <contour>
      <point x="171" y="626" type="line"/>
      <point x="361" y="590"/>
      <point x="386" y="516"/>
      <point x="386" y="328" type="curve" smooth="yes"/>
      <point x="386" y="153"/>
      <point x="385" y="129"/>
      <point x="292" y="129" type="curve"/>
      <point x="292" y="-11" type="line"/>
      <point x="439" y="-11"/>
      <point x="570" y="32"/>
      <point x="570" y="328" type="curve" smooth="yes"/>
      <point x="570" y="619"/>
      <point x="398" y="693"/>
      <point x="229" y="730" type="curve"/>
    </contour>
    <contour>
      <point x="187" y="580" type="line"/>
      <point x="245" y="525" type="line"/>
      <point x="483" y="676" type="line"/>
      <point x="437" y="743" type="line"/>
    </contour>
  </outline>
</glyph>
<glyph name="divide" format="1">
  <advance width="600"/>
  <unicode hex="00F7"/>
  <outline>
    <contour>
      <point x="95" y="234" type="line"/>
      <point x="510" y="234" type="line"/>
      <point x="510" y="374" type="line"/>
      <point x="95" y="374" type="line"/>
    </contour>
    <contour>
      <point x="346" y="33"/>
      <point x="384" y="72"/>
      <point x="384" y="119" type="curve" smooth="yes"/>
      <point x="384" y="166"/>
      <point x="346" y="205"/>
      <point x="298" y="205" type="curve" smooth="yes"/>
      <point x="250" y="205"/>
      <point x="212" y="166"/>
      <point x="212" y="119" type="curve" smooth="yes"/>
      <point x="212" y="72"/>
      <point x="250" y="33"/>
      <point x="298" y="33" type="curve" smooth="yes"/>
    </contour>
    <contour>
      <point x="346" y="406"/>
      <point x="384" y="445"/>
      <point x="384" y="493" type="curve" smooth="yes"/>
      <point x="384" y="539"/>
      <point x="346" y="578"/>
      <point x="298" y="578" type="curve" smooth="yes"/>
      <point x="250" y="578"/>
      <point x="212" y="539"/>
      <point x="212" y="493" type="curve" smooth="yes"/>
      <point x="212" y="445"/>
      <point x="250" y="406"/>
      <point x="298" y="406" type="curve" smooth="yes"/>
    </contour>
  </outline>
</glyph>
<glyph name="thorn" format="1">
  <advance width="600"/>
  <unicode hex="00FE"/>
  <outline>
    <contour>
      <point x="223" y="-200" type="line"/>
      <point x="223" y="800" type="line"/>
      <point x="44" y="800" type="line"/>
      <point x="44" y="-200" type="line"/>
    </contour>
    <contour>
      <point x="192" y="265" type="line"/>
      <point x="205" y="298"/>
      <point x="224" y="371"/>
      <point x="306" y="371" type="curve" smooth="yes"/>
      <point x="370" y="371"/>
      <point x="384" y="323"/>
      <point x="384" y="251" type="curve"/>
      <point x="563" y="251" type="line"/>
      <point x="563" y="434"/>
      <point x="479" y="511"/>
      <point x="339" y="511" type="curve" smooth="yes"/>
      <point x="212" y="511"/>
      <point x="135" y="414"/>
      <point x="135" y="302" type="curve"/>
    </contour>
    <contour>
      <point x="135" y="98"/>
      <point x="202" y="-11"/>
      <point x="329" y="-11" type="curve" smooth="yes"/>
      <point x="469" y="-11"/>
      <point x="563" y="68"/>
      <point x="563" y="251" type="curve"/>
      <point x="384" y="251" type="line"/>
      <point x="384" y="179"/>
      <point x="360" y="129"/>
      <point x="296" y="129" type="curve" smooth="yes"/>
      <point x="214" y="129"/>
      <point x="195" y="204"/>
      <point x="192" y="247" type="curve"/>
      <point x="135" y="210" type="line"/>
    </contour>
  </outline>
</glyph>
<glyph name="aogonek" format="1">
  <advance width="600"/>
  <unicode hex="0105"/>
  <outline>
    <contour>
      <point x="543" y="0" type="line"/>
      <point x="604" y="59" type="line"/>
      <point x="589" y="73" type="line"/>
      <point x="390" y="0" type="line"/>
    </contour>
    <component base="a"/>
    <component base="ogonekcomb" xOffset="148"/>
  </outline>
</glyph>
<glyph name="idotless" format="1">
  <advance width="600"/>
  <unicode hex="0131"/>
  <outline>
    <contour>
      <point x="108" y="361" type="line"/>
      <point x="237" y="361" type="line"/>
      <point x="237" y="500" type="line"/>
      <point x="108" y="500" type="line"/>
    </contour>
    <contour>
      <point x="411" y="56" type="line"/>
      <point x="411" y="500" type="line"/>
      <point x="232" y="500" type="line"/>
      <point x="232" y="31" type="line"/>
    </contour>
    <contour>
      <point x="232" y="0" type="line"/>
      <point x="525" y="0" type="line"/>
      <point x="525" y="139" type="line"/>
      <point x="232" y="139" type="line"/>
    </contour>
  </outline>
</glyph>
<glyph name="Lslash" format="1">
  <advance width="600"/>
  <unicode hex="0141"/>
  <outline>
    <contour>
      <point x="28" y="116" type="line"/>
      <point x="358" y="445" type="line"/>
      <point x="358" y="593" type="line"/>
      <point x="28" y="263" type="line"/>
    </contour>
    <component base="L"/>
  </outline>
</glyph>
<glyph name="lslash" format="1">
  <advance width="600"/>
  <unicode hex="0142"/>
  <outline>
    <contour>
      <point x="128" y="116" type="line"/>
      <point x="473" y="460" type="line"/>
      <point x="473" y="609" type="line"/>
      <point x="128" y="263" type="line"/>
    </contour>
    <component base="l"/>
  </outline>
</glyph>
<glyph name="Eng" format="1">
  <advance width="600"/>
  <unicode hex="014A"/>
  <outline>
    <contour>
      <point x="564" y="20" type="line"/>
      <point x="231" y="700" type="line"/>
      <point x="40" y="700" type="line"/>
      <point x="416" y="0" type="line"/>
    </contour>
    <contour>
      <point x="465" y="-192"/>
      <point x="564" y="-144"/>
      <point x="564" y="-12" type="curve"/>
      <point x="564" y="28" type="line"/>
      <point x="417" y="-3" type="line"/>
      <point x="417" y="-32"/>
      <point x="387" y="-52"/>
      <point x="342" y="-52" type="curve"/>
      <point x="301" y="-52"/>
      <point x="249" y="-45"/>
      <point x="233" y="-39" type="curve"/>
      <point x="196" y="-179" type="line"/>
      <point x="220" y="-185"/>
      <point x="297" y="-192"/>
      <point x="349" y="-192" type="curve"/>
    </contour>
    <contour>
      <point x="217" y="0" type="line"/>
      <point x="217" y="700" type="line"/>
      <point x="38" y="700" type="line"/>
      <point x="38" y="0" type="line"/>
    </contour>
    <contour>
      <point x="564" y="1000" type="line"/>
      <point x="345" y="700" type="line"/>
      <point x="385" y="-229" type="line"/>
      <point x="604" y="0" type="line"/>
    </contour>
  </outline>
</glyph>
<glyph name="eng" format="1">
  <advance width="600"/>
  <unicode hex="014B"/>
  <outline>
    <contour>
      <point x="225" y="-183" type="line"/>
      <point x="249" y="-189"/>
      <point x="277" y="-192"/>
      <point x="309" y="-192" type="curve"/>
      <point x="425" y="-192"/>
      <point x="544" y="-130"/>
      <point x="544" y="-12" type="curve"/>
      <point x="544" y="22" type="line"/>
      <point x="366" y="-3" type="line"/>
      <point x="366" y="8"/>
      <point x="361" y="-40"/>
      <point x="302" y="-40" type="curve"/>
      <point x="281" y="-40"/>
      <point x="266" y="-40"/>
      <point x="262" y="-37" type="curve"/>
    </contour>
    <component base="n"/>
  </outline>
</glyph>
<glyph name="OE" format="1">
  <advance width="600"/>
  <unicode hex="0152"/>
  <outline>
    <contour>
      <point x="267" y="-11"/>
      <point x="300" y="-3"/>
      <point x="329" y="19" type="curve"/>
      <point x="269" y="155" type="line"/>
      <point x="254" y="137"/>
      <point x="249" y="129"/>
      <point x="231" y="129" type="curve" smooth="yes"/>
      <point x="193" y="129"/>
      <point x="177" y="153"/>
      <point x="177" y="348" type="curve" smooth="yes"/>
      <point x="177" y="542"/>
      <point x="193" y="566"/>
      <point x="231" y="566" type="curve" smooth="yes"/>
      <point x="250" y="566"/>
      <point x="254" y="559"/>
      <point x="269" y="539" type="curve"/>
      <point x="338" y="669" type="line"/>
      <point x="307" y="696"/>
      <point x="270" y="706"/>
      <point x="231" y="706" type="curve" smooth="yes"/>
      <point x="124" y="706"/>
      <point x="-7" y="664"/>
      <point x="-7" y="348" type="curve" smooth="yes"/>
      <point x="-7" y="31"/>
      <point x="124" y="-11"/>
      <point x="231" y="-11" type="curve" smooth="yes"/>
    </contour>
    <contour>
      <point x="586" y="0" type="line"/>
      <point x="586" y="139" type="line"/>
      <point x="287" y="139" type="line"/>
      <point x="287" y="0" type="line"/>
    </contour>
    <contour>
      <point x="449" y="0" type="line"/>
      <point x="449" y="700" type="line"/>
      <point x="255" y="700" type="line"/>
      <point x="255" y="0" type="line"/>
    </contour>
    <contour>
      <point x="562" y="274" type="line"/>
      <point x="562" y="414" type="line"/>
      <point x="367" y="414" type="line"/>
      <point x="367" y="274" type="line"/>
    </contour>
    <contour>
      <point x="586" y="561" type="line"/>
      <point x="586" y="700" type="line"/>
      <point x="277" y="700" type="line"/>
      <point x="277" y="561" type="line"/>
    </contour>
  </outline>
</glyph>
<glyph name="oe" format="1">
  <advance width="600"/>
  <unicode hex="0153"/>
  <outline>
    <contour>
      <point x="297" y="-11"/>
      <point x="345" y="108"/>
      <point x="345" y="251" type="curve" smooth="yes"/>
      <point x="345" y="393"/>
      <point x="297" y="512"/>
      <point x="181" y="512" type="curve" smooth="yes"/>
      <point x="84" y="512"/>
      <point x="1" y="443"/>
      <point x="1" y="251" type="curve" smooth="yes"/>
      <point x="1" y="58"/>
      <point x="84" y="-11"/>
      <point x="181" y="-11" type="curve" smooth="yes"/>
    </contour>
    <contour>
      <point x="166" y="129"/>
      <point x="142" y="117"/>
      <point x="142" y="251" type="curve" smooth="yes"/>
      <point x="142" y="384"/>
      <point x="166" y="372"/>
      <point x="181" y="372" type="curve" smooth="yes"/>
      <point x="194" y="372"/>
      <point x="218" y="384"/>
      <point x="218" y="251" type="curve" smooth="yes"/>
      <point x="218" y="117"/>
      <point x="194" y="129"/>
      <point x="181" y="129" type="curve" smooth="yes"/>
    </contour>
    <contour>
      <point x="506" y="-11"/>
      <point x="579" y="35"/>
      <point x="609" y="116" type="curve"/>
      <point x="492" y="170" type="line"/>
      <point x="487" y="155"/>
      <point x="480" y="129"/>
      <point x="444" y="129" type="curve" smooth="yes"/>
      <point x="418" y="129"/>
      <point x="400" y="141"/>
      <point x="400" y="251" type="curve" smooth="yes"/>
      <point x="400" y="351"/>
      <point x="410" y="372"/>
      <point x="434" y="372" type="curve" smooth="yes"/>
      <point x="450" y="372"/>
      <point x="464" y="374"/>
      <point x="464" y="335" type="curve"/>
      <point x="601" y="195" type="line"/>
      <point x="611" y="365"/>
      <point x="555" y="512"/>
      <point x="434" y="512" type="curve" smooth="yes"/>
      <point x="340" y="512"/>
      <point x="246" y="465"/>
      <point x="246" y="247" type="curve" smooth="yes"/>
      <point x="246" y="33"/>
      <point x="336" y="-11"/>
      <point x="442" y="-11" type="curve" smooth="yes"/>
    </contour>
    <contour>
      <point x="601" y="195" type="line"/>
      <point x="541" y="335" type="line"/>
      <point x="354" y="335" type="line"/>
      <point x="354" y="195" type="line"/>
    </contour>
  </outline>
</glyph>
<glyph name="circumflex" format="1">
  <advance width="600"/>
  <unicode hex="02C6"/>
  <outline>
    <contour>
      <point x="363" y="764" type="line"/>
      <point x="236" y="764" type="line"/>
      <point x="103" y="619" type="line"/>
      <point x="253" y="619" type="line"/>
      <point x="300" y="693" type="line"/>
      <point x="346" y="619" type="line"/>
      <point x="496" y="619" type="line"/>
    </contour>
  </outline>
</glyph>
<glyph name="caron" format="1">
  <advance width="600"/>
  <unicode hex="02C7"/>
  <outline>
    <contour>
      <point x="346" y="764" type="line"/>
      <point x="300" y="690" type="line"/>
      <point x="253" y="764" type="line"/>
      <point x="103" y="764" type="line"/>
      <point x="236" y="619" type="line"/>
      <point x="363" y="619" type="line"/>
      <point x="496" y="764" type="line"/>
    </contour>
  </outline>
</glyph>
<glyph name="breve" format="1">
  <advance width="600"/>
  <unicode hex="02D8"/>
  <outline>
    <contour>
      <point x="341" y="769" type="line"/>
      <point x="341" y="758"/>
      <point x="341" y="704"/>
      <point x="300" y="704" type="curve" smooth="yes"/>
      <point x="260" y="704"/>
      <point x="259" y="758"/>
      <point x="259" y="769" type="curve"/>
      <point x="148" y="769" type="line"/>
      <point x="148" y="707"/>
      <point x="183" y="616"/>
      <point x="299" y="616" type="curve" smooth="yes"/>
      <point x="415" y="616"/>
      <point x="452" y="707"/>
      <point x="452" y="769" type="curve"/>
    </contour>
  </outline>
</glyph>
<glyph name="dotaccent" format="1">
  <advance width="600"/>
  <unicode hex="02D9"/>
  <outline>
    <contour>
      <point x="346" y="620"/>
      <point x="387" y="661"/>
      <point x="387" y="713" type="curve" smooth="yes"/>
      <point x="387" y="766"/>
      <point x="346" y="807"/>
      <point x="294" y="807" type="curve" smooth="yes"/>
      <point x="242" y="807"/>
      <point x="201" y="766"/>
      <point x="201" y="713" type="curve" smooth="yes"/>
      <point x="201" y="661"/>
      <point x="242" y="620"/>
      <point x="294" y="620" type="curve" smooth="yes"/>
    </contour>
  </outline>
</glyph>
<glyph name="ring" format="1">
  <advance width="600"/>
  <unicode hex="02DA"/>
  <outline>
    <contour>
      <point x="363" y="542"/>
      <point x="418" y="594"/>
      <point x="418" y="663" type="curve" smooth="yes"/>
      <point x="418" y="729"/>
      <point x="363" y="783"/>
      <point x="298" y="783" type="curve" smooth="yes"/>
      <point x="231" y="783"/>
      <point x="176" y="729"/>
      <point x="176" y="663" type="curve" smooth="yes"/>
      <point x="176" y="594"/>
      <point x="231" y="542"/>
      <point x="298" y="542" type="curve" smooth="yes"/>
    </contour>
    <contour>
      <point x="279" y="630"/>
      <point x="266" y="643"/>
      <point x="266" y="663" type="curve" smooth="yes"/>
      <point x="266" y="680"/>
      <point x="279" y="693"/>
      <point x="298" y="693" type="curve" smooth="yes"/>
      <point x="315" y="693"/>
      <point x="329" y="680"/>
      <point x="329" y="663" type="curve" smooth="yes"/>
      <point x="329" y="643"/>
      <point x="315" y="630"/>
      <point x="298" y="630" type="curve" smooth="yes"/>
    </contour>
  </outline>
</glyph>
<glyph name="ogonek" format="1">
  <advance width="600"/>
  <unicode hex="02DB"/>
  <outline>
    <contour>
      <point x="242" y="0" type="line" smooth="yes"/>
      <point x="242" y="0"/>
      <point x="146" y="-35"/>
      <point x="146" y="-110" type="curve" smooth="yes"/>
      <point x="146" y="-210"/>
      <point x="327" y="-220"/>
      <point x="452" y="-181" type="curve"/>
      <point x="403" y="-80" type="line"/>
      <point x="383" y="-85"/>
      <point x="332" y="-101"/>
      <point x="332" y="-60" type="curve" smooth="yes"/>
      <point x="332" y="-30"/>
      <point x="396" y="0"/>
      <point x="396" y="0" type="curve" smooth="yes"/>
    </contour>
  </outline>
</glyph>
<glyph name="tilde" format="1">
  <advance width="600"/>
  <unicode hex="02DC"/>
  <outline>
    <contour>
      <point x="59" y="709"/>
      <point x="109" y="794"/>
      <point x="208" y="794" type="curve" smooth="yes"/>
      <point x="311" y="794"/>
      <point x="309" y="719"/>
      <point x="366" y="719" type="curve" smooth="yes"/>
      <point x="424" y="719"/>
      <point x="449" y="781"/>
      <point x="449" y="781" type="curve"/>
      <point x="526" y="710" type="line"/>
      <point x="517" y="699"/>
      <point x="476" y="615"/>
      <point x="377" y="615" type="curve" smooth="yes"/>
      <point x="274" y="615"/>
      <point x="277" y="688"/>
      <point x="219" y="688" type="curve" smooth="yes"/>
      <point x="162" y="688"/>
      <point x="131" y="627"/>
      <point x="131" y="627" type="curve"/>
      <point x="54" y="697" type="line"/>
    </contour>
  </outline>
</glyph>
<glyph name="hungarumlaut" format="1">
  <advance width="600"/>
  <unicode hex="02DD"/>
  <outline>
    <contour>
      <point x="249" y="609" type="line"/>
      <point x="343" y="765" type="line"/>
      <point x="195" y="765" type="line"/>
      <point x="127" y="609" type="line"/>
    </contour>
    <contour>
      <point x="421" y="609" type="line"/>
      <point x="553" y="765" type="line"/>
      <point x="399" y="765" type="line"/>
      <point x="304" y="609" type="line"/>
    </contour>
  </outline>
</glyph>
<glyph name="strokeshortcomb" format="1">
  <advance width="600"/>
  <unicode hex="0335"/>
  <outline>
    <contour>
      <point x="119" y="295" type="line"/>
      <point x="475" y="295" type="line"/>
      <point x="475" y="413" type="line"/>
      <point x="119" y="413" type="line"/>
    </contour>
  </outline>
</glyph>
<glyph name="strokelongcomb" format="1">
  <advance width="600"/>
  <unicode hex="0336"/>
  <outline>
    <contour>
      <point x="49" y="295" type="line"/>
      <point x="549" y="295" type="line"/>
      <point x="549" y="413" type="line"/>
      <point x="49" y="413" type="line"/>
    </contour>
  </outline>
</glyph>
<glyph name="slashshortcomb" format="1">
  <advance width="600"/>
  <unicode hex="0337"/>
  <outline>
    <contour>
      <point x="424" y="563" type="line"/>
      <point x="11" y="-62" type="line"/>
      <point x="148" y="-62" type="line"/>
      <point x="561" y="563" type="line"/>
    </contour>
  </outline>
</glyph>
<glyph name="slashlongcomb" format="1">
  <advance width="600"/>
  <unicode hex="0338"/>
  <outline>
    <contour>
      <point x="478" y="756" type="line"/>
      <point x="-19" y="-62" type="line"/>
      <point x="118" y="-62" type="line"/>
      <point x="615" y="756" type="line"/>
    </contour>
  </outline>
</glyph>
<glyph name="endash" format="1">
  <advance width="600"/>
  <unicode hex="2013"/>
  <outline>
    <contour>
      <point x="91" y="234" type="line"/>
      <point x="499" y="234" type="line"/>
      <point x="499" y="374" type="line"/>
      <point x="91" y="374" type="line"/>
    </contour>
  </outline>
</glyph>
<glyph name="emdash" format="1">
  <advance width="600"/>
  <unicode hex="2014"/>
  <outline>
    <contour>
      <point x="12" y="234" type="line"/>
      <point x="586" y="234" type="line"/>
      <point x="586" y="374" type="line"/>
      <point x="12" y="374" type="line"/>
    </contour>
  </outline>
</glyph>
<glyph name="quoteleft" format="1">
  <advance width="600"/>
  <unicode hex="2018"/>
  <outline>
    <contour>
      <point x="243" y="686"/>
      <point x="202" y="644"/>
      <point x="202" y="591" type="curve" smooth="yes"/>
      <point x="202" y="538"/>
      <point x="243" y="497"/>
      <point x="297" y="497" type="curve" smooth="yes"/>
      <point x="351" y="497"/>
      <point x="392" y="538"/>
      <point x="392" y="591" type="curve" smooth="yes"/>
      <point x="392" y="644"/>
      <point x="351" y="686"/>
      <point x="297" y="686" type="curve" smooth="yes"/>
    </contour>
    <contour>
      <point x="353" y="770" type="line"/>
      <point x="279" y="803" type="line"/>
      <point x="211" y="632" type="line"/>
      <point x="312" y="640" type="line"/>
    </contour>
  </outline>
</glyph>
<glyph name="quoteright" format="1">
  <advance width="600"/>
  <unicode hex="2019"/>
  <outline>
    <contour>
      <point x="346" y="613"/>
      <point x="387" y="655"/>
      <point x="387" y="708" type="curve" smooth="yes"/>
      <point x="387" y="761"/>
      <point x="346" y="803"/>
      <point x="292" y="803" type="curve" smooth="yes"/>
      <point x="238" y="803"/>
      <point x="197" y="761"/>
      <point x="197" y="708" type="curve" smooth="yes"/>
      <point x="197" y="655"/>
      <point x="238" y="613"/>
      <point x="292" y="613" type="curve" smooth="yes"/>
    </contour>
    <contour>
      <point x="236" y="530" type="line"/>
      <point x="310" y="497" type="line"/>
      <point x="378" y="667" type="line"/>
      <point x="277" y="659" type="line"/>
    </contour>
  </outline>
</glyph>
<glyph name="quotedblleft" format="1">
  <advance width="600"/>
  <unicode hex="201C"/>
  <outline>
    <contour>
      <point x="249" y="654" type="line"/>
      <point x="290" y="783" type="line"/>
      <point x="216" y="816" type="line"/>
      <point x="148" y="646" type="line"/>
    </contour>
    <contour>
      <point x="502" y="510"/>
      <point x="543" y="552"/>
      <point x="543" y="605" type="curve" smooth="yes"/>
      <point x="543" y="658"/>
      <point x="502" y="700"/>
      <point x="448" y="700" type="curve" smooth="yes"/>
      <point x="394" y="700"/>
      <point x="353" y="658"/>
      <point x="353" y="605" type="curve" smooth="yes"/>
      <point x="353" y="552"/>
      <point x="394" y="510"/>
      <point x="448" y="510" type="curve" smooth="yes"/>
    </contour>
    <contour>
      <point x="463" y="654" type="line"/>
      <point x="504" y="783" type="line"/>
      <point x="430" y="816" type="line"/>
      <point x="362" y="646" type="line"/>
    </contour>
    <contour>
      <point x="288" y="510"/>
      <point x="329" y="552"/>
      <point x="329" y="605" type="curve" smooth="yes"/>
      <point x="329" y="658"/>
      <point x="288" y="700"/>
      <point x="234" y="700" type="curve" smooth="yes"/>
      <point x="180" y="700"/>
      <point x="139" y="658"/>
      <point x="139" y="605" type="curve" smooth="yes"/>
      <point x="139" y="552"/>
      <point x="180" y="510"/>
      <point x="234" y="510" type="curve" smooth="yes"/>
    </contour>
  </outline>
</glyph>
<glyph name="quotedblright" format="1">
  <advance width="600"/>
  <unicode hex="201D"/>
  <outline>
    <contour>
      <point x="431" y="623"/>
      <point x="473" y="665"/>
      <point x="473" y="718" type="curve" smooth="yes"/>
      <point x="473" y="771"/>
      <point x="431" y="813"/>
      <point x="378" y="813" type="curve" smooth="yes"/>
      <point x="324" y="813"/>
      <point x="282" y="771"/>
      <point x="282" y="718" type="curve" smooth="yes"/>
      <point x="282" y="665"/>
      <point x="324" y="623"/>
      <point x="378" y="623" type="curve" smooth="yes"/>
    </contour>
    <contour>
      <point x="252" y="677" type="line"/>
      <point x="151" y="669" type="line"/>
      <point x="110" y="540" type="line"/>
      <point x="184" y="507" type="line"/>
    </contour>
    <contour>
      <point x="220" y="623"/>
      <point x="261" y="665"/>
      <point x="261" y="718" type="curve" smooth="yes"/>
      <point x="261" y="771"/>
      <point x="220" y="813"/>
      <point x="166" y="813" type="curve" smooth="yes"/>
      <point x="112" y="813"/>
      <point x="71" y="771"/>
      <point x="71" y="718" type="curve" smooth="yes"/>
      <point x="71" y="665"/>
      <point x="112" y="623"/>
      <point x="166" y="623" type="curve" smooth="yes"/>
    </contour>
    <contour>
      <point x="463" y="677" type="line"/>
      <point x="363" y="669" type="line"/>
      <point x="322" y="540" type="line"/>
      <point x="396" y="507" type="line"/>
    </contour>
  </outline>
</glyph>
<glyph name="dagger" format="1">
  <advance width="600"/>
  <unicode hex="2020"/>
  <outline>
    <contour>
      <point x="374" y="0" type="line"/>
      <point x="374" y="680" type="line"/>
      <point x="223" y="680" type="line"/>
      <point x="223" y="0" type="line"/>
    </contour>
    <contour>
      <point x="117" y="361" type="line"/>
      <point x="482" y="361" type="line"/>
      <point x="482" y="500" type="line"/>
      <point x="117" y="500" type="line"/>
    </contour>
  </outline>
</glyph>
<glyph name="daggerdbl" format="1">
  <advance width="600"/>
  <unicode hex="2021"/>
  <outline>
    <contour>
      <point x="117" y="139" type="line"/>
      <point x="482" y="139" type="line"/>
      <point x="482" y="279" type="line"/>
      <point x="117" y="279" type="line"/>
    </contour>
    <component base="dagger"/>
  </outline>
</glyph>
<glyph name="bullet" format="1">
  <advance width="600"/>
  <unicode hex="2022"/>
  <outline>
    <contour>
      <point x="389" y="168"/>
      <point x="463" y="242"/>
      <point x="463" y="335" type="curve" smooth="yes"/>
      <point x="463" y="429"/>
      <point x="389" y="503"/>
      <point x="296" y="503" type="curve" smooth="yes"/>
      <point x="203" y="503"/>
      <point x="129" y="429"/>
      <point x="129" y="335" type="curve" smooth="yes"/>
      <point x="129" y="242"/>
      <point x="203" y="168"/>
      <point x="296" y="168" type="curve" smooth="yes"/>
    </contour>
  </outline>
</glyph>
<glyph name="perthousand" format="1">
  <advance width="600"/>
  <unicode hex="2030"/>
  <outline>
    <contour>
      <point x="585" y="517" type="line"/>
      <point x="515" y="611" type="line"/>
      <point x="0" y="292" type="line"/>
      <point x="70" y="198" type="line"/>
    </contour>
    <contour>
      <point x="248" y="3"/>
      <point x="297" y="32"/>
      <point x="297" y="111" type="curve" smooth="yes"/>
      <point x="297" y="188"/>
      <point x="248" y="217"/>
      <point x="194" y="217" type="curve" smooth="yes"/>
      <point x="138" y="217"/>
      <point x="90" y="188"/>
      <point x="90" y="111" type="curve" smooth="yes"/>
      <point x="90" y="32"/>
      <point x="138" y="3"/>
      <point x="194" y="3" type="curve" smooth="yes"/>
    </contour>
    <contour>
      <point x="185" y="84"/>
      <point x="178" y="93"/>
      <point x="178" y="111" type="curve" smooth="yes"/>
      <point x="178" y="127"/>
      <point x="185" y="136"/>
      <point x="194" y="136" type="curve" smooth="yes"/>
      <point x="202" y="136"/>
      <point x="209" y="127"/>
      <point x="209" y="111" type="curve" smooth="yes"/>
      <point x="209" y="93"/>
      <point x="202" y="84"/>
      <point x="194" y="84" type="curve" smooth="yes"/>
    </contour>
    <contour>
      <point x="498" y="3"/>
      <point x="547" y="32"/>
      <point x="547" y="111" type="curve" smooth="yes"/>
      <point x="547" y="188"/>
      <point x="498" y="217"/>
      <point x="443" y="217" type="curve" smooth="yes"/>
      <point x="388" y="217"/>
      <point x="340" y="188"/>
      <point x="340" y="111" type="curve" smooth="yes"/>
      <point x="340" y="32"/>
      <point x="388" y="3"/>
      <point x="443" y="3" type="curve" smooth="yes"/>
    </contour>
    <contour>
      <point x="435" y="84"/>
      <point x="428" y="93"/>
      <point x="428" y="111" type="curve" smooth="yes"/>
      <point x="428" y="127"/>
      <point x="435" y="136"/>
      <point x="443" y="136" type="curve" smooth="yes"/>
      <point x="452" y="136"/>
      <point x="459" y="127"/>
      <point x="459" y="111" type="curve" smooth="yes"/>
      <point x="459" y="93"/>
      <point x="452" y="84"/>
      <point x="443" y="84" type="curve" smooth="yes"/>
    </contour>
    <contour>
      <point x="249" y="469"/>
      <point x="298" y="498"/>
      <point x="298" y="577" type="curve" smooth="yes"/>
      <point x="298" y="654"/>
      <point x="249" y="683"/>
      <point x="194" y="683" type="curve" smooth="yes"/>
      <point x="139" y="683"/>
      <point x="91" y="654"/>
      <point x="91" y="577" type="curve" smooth="yes"/>
      <point x="91" y="498"/>
      <point x="139" y="469"/>
      <point x="194" y="469" type="curve" smooth="yes"/>
    </contour>
    <contour>
      <point x="186" y="550"/>
      <point x="179" y="559"/>
      <point x="179" y="577" type="curve" smooth="yes"/>
      <point x="179" y="593"/>
      <point x="186" y="602"/>
      <point x="194" y="602" type="curve" smooth="yes"/>
      <point x="203" y="602"/>
      <point x="210" y="593"/>
      <point x="210" y="577" type="curve" smooth="yes"/>
      <point x="210" y="559"/>
      <point x="203" y="550"/>
      <point x="194" y="550" type="curve" smooth="yes"/>
    </contour>
  </outline>
</glyph>
<glyph name="guilsinglleft" format="1">
  <advance width="600"/>
  <unicode hex="2039"/>
  <outline>
    <contour>
      <point x="230" y="238" type="line"/>
      <point x="441" y="444" type="line"/>
      <point x="355" y="530" type="line"/>
      <point x="119" y="361" type="line"/>
    </contour>
    <contour>
      <point x="355" y="57" type="line"/>
      <point x="441" y="143" type="line"/>
      <point x="230" y="350" type="line"/>
      <point x="119" y="226" type="line"/>
    </contour>
    <contour>
      <point x="119" y="226" type="line"/>
      <point x="213" y="226" type="line"/>
      <point x="213" y="361" type="line"/>
      <point x="119" y="361" type="line"/>
    </contour>
  </outline>
</glyph>
<glyph name="fraction" format="1">
  <advance width="600"/>
  <unicode hex="2044"/>
  <outline>
    <contour>
      <point x="443" y="800" type="line"/>
      <point x="4" y="-142" type="line"/>
      <point x="150" y="-142" type="line"/>
      <point x="589" y="800" type="line"/>
    </contour>
  </outline>
</glyph>
<glyph name="euro" format="1">
  <advance width="600"/>
  <unicode hex="20AC"/>
  <outline>
    <contour>
      <point x="461" y="-11"/>
      <point x="545" y="21"/>
      <point x="593" y="113" type="curve"/>
      <point x="460" y="187" type="line"/>
      <point x="430" y="123"/>
      <point x="395" y="129"/>
      <point x="360" y="129" type="curve" smooth="yes"/>
      <point x="324" y="129"/>
      <point x="260" y="158"/>
      <point x="260" y="348" type="curve" smooth="yes"/>
      <point x="260" y="537"/>
      <point x="324" y="566"/>
      <point x="360" y="566" type="curve" smooth="yes"/>
      <point x="394" y="566"/>
      <point x="428" y="573"/>
      <point x="458" y="511" type="curve"/>
      <point x="591" y="585" type="line"/>
      <point x="543" y="675"/>
      <point x="460" y="706"/>
      <point x="360" y="706" type="curve" smooth="yes"/>
      <point x="213" y="706"/>
      <point x="76" y="630"/>
      <point x="76" y="348" type="curve" smooth="yes"/>
      <point x="76" y="65"/>
      <point x="213" y="-11"/>
      <point x="360" y="-11" type="curve" smooth="yes"/>
    </contour>
    <contour>
      <point x="421" y="207" type="line"/>
      <point x="438" y="332" type="line"/>
      <point x="10" y="332" type="line"/>
      <point x="-7" y="207" type="line"/>
    </contour>
    <contour>
      <point x="442" y="367" type="line"/>
      <point x="459" y="492" type="line"/>
      <point x="22" y="492" type="line"/>
      <point x="5" y="367" type="line"/>
    </contour>
  </outline>
</glyph>
<glyph name="trademark" format="1">
  <advance width="600"/>
  <unicode hex="2122"/>
  <outline>
    <contour>
      <point x="207" y="426" type="line"/>
      <point x="207" y="700" type="line"/>
      <point x="94" y="700" type="line"/>
      <point x="94" y="426" type="line"/>
    </contour>
    <contour>
      <point x="19" y="620" type="line"/>
      <point x="283" y="620" type="line"/>
      <point x="283" y="700" type="line"/>
      <point x="19" y="700" type="line"/>
    </contour>
    <contour>
      <point x="361" y="426" type="line"/>
      <point x="372" y="700" type="line"/>
      <point x="297" y="700" type="line"/>
      <point x="278" y="426" type="line"/>
    </contour>
    <contour>
      <point x="575" y="426" type="line"/>
      <point x="554" y="700" type="line"/>
      <point x="480" y="700" type="line"/>
      <point x="489" y="426" type="line"/>
    </contour>
    <contour>
      <point x="425" y="589" type="line"/>
      <point x="408" y="476" type="line"/>
      <point x="454" y="476" type="line"/>
      <point x="506" y="700" type="line"/>
      <point x="462" y="700" type="line"/>
    </contour>
    <contour>
      <point x="345" y="700" type="line"/>
      <point x="399" y="476" type="line"/>
      <point x="445" y="476" type="line"/>
      <point x="428" y="589" type="line"/>
      <point x="391" y="700" type="line"/>
    </contour>
  </outline>
</glyph>
<glyph name="upArrow" format="1">
  <advance width="600"/>
  <unicode hex="2191"/>
  <outline>
    <contour>
      <point x="351" y="42" type="line"/>
      <point x="351" y="326" type="line"/>
      <point x="234" y="326" type="line" smooth="yes"/>
      <point x="234" y="42" type="line"/>
    </contour>
    <contour>
      <point x="292" y="517" type="line"/>
      <point x="160" y="299" type="line"/>
      <point x="425" y="299" type="line"/>
    </contour>
  </outline>
</glyph>
<glyph name="emptyset" format="1">
  <advance width="600"/>
  <unicode hex="2205"/>
  <outline>
    <contour>
      <point x="463" y="-2"/>
      <point x="593" y="128"/>
      <point x="593" y="288" type="curve" smooth="yes"/>
      <point x="593" y="448"/>
      <point x="463" y="578"/>
      <point x="303" y="578" type="curve" smooth="yes"/>
      <point x="142" y="578"/>
      <point x="12" y="448"/>
      <point x="12" y="288" type="curve" smooth="yes"/>
      <point x="12" y="128"/>
      <point x="142" y="-2"/>
      <point x="303" y="-2" type="curve" smooth="yes"/>
    </contour>
    <contour>
      <point x="226" y="150"/>
      <point x="164" y="212"/>
      <point x="164" y="288" type="curve" smooth="yes"/>
      <point x="164" y="364"/>
      <point x="226" y="426"/>
      <point x="303" y="426" type="curve" smooth="yes"/>
      <point x="379" y="426"/>
      <point x="441" y="364"/>
      <point x="441" y="288" type="curve" smooth="yes"/>
      <point x="441" y="212"/>
      <point x="379" y="150"/>
      <point x="303" y="150" type="curve" smooth="yes"/>
    </contour>
    <contour>
      <point x="4" y="84" type="line"/>
      <point x="92" y="-4" type="line"/>
      <point x="585" y="490" type="line"/>
      <point x="498" y="578" type="line"/>
    </contour>
  </outline>
</glyph>
<glyph name="minus" format="1">
  <advance width="600"/>
  <unicode hex="2212"/>
  <outline>
    <contour>
      <point x="95" y="234" type="line"/>
      <point x="510" y="234" type="line"/>
      <point x="510" y="374" type="line"/>
      <point x="95" y="374" type="line"/>
    </contour>
  </outline>
</glyph>
<glyph name="radical" format="1">
  <advance width="600"/>
  <unicode hex="221A"/>
  <outline>
    <contour>
      <point x="297" y="0" type="line"/>
      <point x="492" y="869" type="line"/>
      <point x="342" y="869" type="line"/>
      <point x="147" y="0" type="line"/>
    </contour>
    <contour>
      <point x="270" y="0" type="line"/>
      <point x="270" y="139" type="line"/>
      <point x="117" y="139" type="line"/>
      <point x="117" y="0" type="line"/>
    </contour>
    <contour>
      <point x="240" y="0" type="line"/>
      <point x="156" y="373" type="line"/>
      <point x="6" y="373" type="line"/>
      <point x="90" y="0" type="line"/>
    </contour>
    <contour>
      <point x="607" y="730" type="line"/>
      <point x="607" y="869" type="line"/>
      <point x="447" y="869" type="line"/>
      <point x="447" y="730" type="line"/>
    </contour>
  </outline>
</glyph>
<glyph name="infinity" format="1">
  <advance width="600"/>
  <unicode hex="221E"/>
  <outline>
    <contour>
      <point x="319" y="144"/>
      <point x="351" y="309"/>
      <point x="351" y="309" type="curve" smooth="yes"/>
      <point x="351" y="309"/>
      <point x="319" y="472"/>
      <point x="185" y="484" type="curve" smooth="yes"/>
      <point x="90" y="491"/>
      <point x="16" y="427"/>
      <point x="16" y="309" type="curve" smooth="yes"/>
      <point x="16" y="187"/>
      <point x="90" y="125"/>
      <point x="185" y="132" type="curve" smooth="yes"/>
    </contour>
    <contour>
      <point x="162" y="258"/>
      <point x="149" y="273"/>
      <point x="149" y="309" type="curve" smooth="yes"/>
      <point x="149" y="343"/>
      <point x="162" y="358"/>
      <point x="186" y="358" type="curve" smooth="yes"/>
      <point x="225" y="358"/>
      <point x="240" y="309"/>
      <point x="240" y="309" type="curve" smooth="yes"/>
      <point x="240" y="309"/>
      <point x="225" y="258"/>
      <point x="186" y="258" type="curve" smooth="yes"/>
    </contour>
    <contour>
      <point x="506" y="125"/>
      <point x="580" y="187"/>
      <point x="580" y="309" type="curve" smooth="yes"/>
      <point x="580" y="427"/>
      <point x="506" y="491"/>
      <point x="411" y="484" type="curve" smooth="yes"/>
      <point x="277" y="472"/>
      <point x="245" y="309"/>
      <point x="245" y="309" type="curve" smooth="yes"/>
      <point x="245" y="309"/>
      <point x="277" y="144"/>
      <point x="411" y="132" type="curve" smooth="yes"/>
    </contour>
    <contour>
      <point x="371" y="258"/>
      <point x="356" y="309"/>
      <point x="356" y="309" type="curve" smooth="yes"/>
      <point x="356" y="309"/>
      <point x="371" y="358"/>
      <point x="410" y="358" type="curve" smooth="yes"/>
      <point x="434" y="358"/>
      <point x="447" y="343"/>
      <point x="447" y="309" type="curve" smooth="yes"/>
      <point x="447" y="273"/>
      <point x="434" y="258"/>
      <point x="410" y="258" type="curve" smooth="yes"/>
    </contour>
  </outline>
</glyph>
<glyph name="approxequal" format="1">
  <advance width="600"/>
  <unicode hex="2248"/>
  <outline>
    <contour>
      <point x="74" y="410"/>
      <point x="110" y="471"/>
      <point x="212" y="471" type="curve" smooth="yes"/>
      <point x="305" y="471"/>
      <point x="312" y="403"/>
      <point x="364" y="403" type="curve" smooth="yes"/>
      <point x="416" y="403"/>
      <point x="474" y="453"/>
      <point x="474" y="453" type="curve"/>
      <point x="523" y="362" type="line"/>
      <point x="515" y="352"/>
      <point x="475" y="292"/>
      <point x="373" y="292" type="curve" smooth="yes"/>
      <point x="280" y="292"/>
      <point x="274" y="358"/>
      <point x="222" y="358" type="curve" smooth="yes"/>
      <point x="170" y="358"/>
      <point x="118" y="313"/>
      <point x="118" y="313" type="curve"/>
      <point x="69" y="399" type="line"/>
    </contour>
    <contour>
      <point x="74" y="267"/>
      <point x="110" y="329"/>
      <point x="212" y="329" type="curve" smooth="yes"/>
      <point x="305" y="329"/>
      <point x="312" y="261"/>
      <point x="364" y="261" type="curve" smooth="yes"/>
      <point x="416" y="261"/>
      <point x="474" y="311"/>
      <point x="474" y="311" type="curve"/>
      <point x="523" y="220" type="line"/>
      <point x="515" y="210"/>
      <point x="475" y="150"/>
      <point x="373" y="150" type="curve" smooth="yes"/>
      <point x="280" y="150"/>
      <point x="274" y="216"/>
      <point x="222" y="216" type="curve" smooth="yes"/>
      <point x="170" y="216"/>
      <point x="118" y="171"/>
      <point x="118" y="171" type="curve"/>
      <point x="69" y="256" type="line"/>
    </contour>
  </outline>
</glyph>
<glyph name="notequal" format="1">
  <advance width="600"/>
  <unicode hex="2260"/>
  <outline>
    <contour>
      <point x="247" y="60" type="line"/>
      <point x="487" y="555" type="line"/>
      <point x="341" y="555" type="line"/>
      <point x="102" y="60" type="line"/>
    </contour>
    <component base="equal"/>
  </outline>
</glyph>
<glyph name="greaterequal" format="1">
  <advance width="600"/>
  <unicode hex="2265"/>
  <outline>
    <contour>
      <point x="165" y="613" type="line"/>
      <point x="93" y="507" type="line"/>
      <point x="360" y="344" type="line"/>
      <point x="485" y="482" type="line"/>
    </contour>
    <contour>
      <point x="377" y="482" type="line"/>
      <point x="377" y="337" type="line"/>
      <point x="485" y="337" type="line"/>
      <point x="485" y="482" type="line"/>
    </contour>
    <contour>
      <point x="360" y="475" type="line"/>
      <point x="93" y="312" type="line"/>
      <point x="165" y="206" type="line"/>
      <point x="485" y="337" type="line"/>
    </contour>
    <contour>
      <point x="113" y="169" type="line"/>
      <point x="113" y="44" type="line"/>
      <point x="485" y="44" type="line"/>
      <point x="485" y="169" type="line"/>
    </contour>
  </outline>
</glyph>
<glyph name="lozenge" format="1">
  <advance width="600"/>
  <unicode hex="25CA"/>
  <outline>
    <contour>
      <point x="211" y="672" type="line"/>
      <point x="418" y="331" type="line"/>
      <point x="597" y="350" type="line"/>
      <point x="387" y="700" type="line"/>
    </contour>
    <contour>
      <point x="214" y="700" type="line"/>
      <point x="214" y="649" type="line"/>
      <point x="387" y="649" type="line"/>
      <point x="387" y="700" type="line"/>
    </contour>
    <contour>
      <point x="4" y="350" type="line"/>
      <point x="183" y="331" type="line"/>
      <point x="390" y="672" type="line"/>
      <point x="214" y="700" type="line"/>
    </contour>
    <contour>
      <point x="597" y="350" type="line"/>
      <point x="418" y="369" type="line"/>
      <point x="211" y="28" type="line"/>
      <point x="387" y="0" type="line"/>
    </contour>
    <contour>
      <point x="387" y="51" type="line"/>
      <point x="214" y="51" type="line"/>
      <point x="214" y="0" type="line"/>
      <point x="387" y="0" type="line"/>
    </contour>
    <contour>
      <point x="390" y="28" type="line"/>
      <point x="183" y="369" type="line"/>
      <point x="4" y="350" type="line"/>
      <point x="214" y="0" type="line"/>
    </contour>
  </outline>
</glyph>
<glyph name="G.ss01" format="1">
  <advance width="600"/>
  <outline>
    <contour>
      <point x="478" y="-11"/>
      <point x="578" y="90"/>
      <point x="578" y="303" type="curve"/>
      <point x="412" y="333" type="line"/>
      <point x="412" y="168"/>
      <point x="381" y="129"/>
      <point x="317" y="129" type="curve" smooth="yes"/>
      <point x="253" y="129"/>
      <point x="212" y="154"/>
      <point x="212" y="348" type="curve" smooth="yes"/>
      <point x="212" y="542"/>
      <point x="248" y="566"/>
      <point x="312" y="566" type="curve" smooth="yes"/>
      <point x="366" y="566"/>
      <point x="385" y="525"/>
      <point x="413" y="466" type="curve"/>
      <point x="573" y="556" type="line"/>
      <point x="525" y="661"/>
      <point x="432" y="706"/>
      <point x="312" y="706" type="curve" smooth="yes"/>
      <point x="151" y="706"/>
      <point x="28" y="635"/>
      <point x="28" y="348" type="curve" smooth="yes"/>
      <point x="28" y="60"/>
      <point x="156" y="-11"/>
      <point x="317" y="-11" type="curve" smooth="yes"/>
    </contour>
    <contour>
      <point x="578" y="274" type="line"/>
      <point x="578" y="414" type="line"/>
      <point x="307" y="414" type="line"/>
      <point x="307" y="274" type="line"/>
    </contour>
  </outline>
</glyph>
<glyph name="Q.ss01" format="1">
  <advance width="600"/>
  <outline>
    <contour>
      <point x="473" y="-11"/>
      <point x="581" y="60"/>
      <point x="581" y="348" type="curve" smooth="yes"/>
      <point x="581" y="635"/>
      <point x="473" y="706"/>
      <point x="299" y="706" type="curve" smooth="yes"/>
      <point x="123" y="706"/>
      <point x="15" y="635"/>
      <point x="15" y="348" type="curve" smooth="yes"/>
      <point x="15" y="60"/>
      <point x="123" y="-11"/>
      <point x="299" y="-11" type="curve" smooth="yes"/>
    </contour>
    <contour>
      <point x="622" y="-72" type="line"/>
      <point x="611" y="59"/>
      <point x="514" y="164"/>
      <point x="316" y="129" type="curve"/>
      <point x="345" y="-10" type="line"/>
      <point x="438" y="5"/>
      <point x="481" y="-86"/>
      <point x="497" y="-181" type="curve"/>
    </contour>
    <contour>
      <point x="234" y="129"/>
      <point x="199" y="181"/>
      <point x="199" y="348" type="curve" smooth="yes"/>
      <point x="199" y="514"/>
      <point x="234" y="566"/>
      <point x="299" y="566" type="curve" smooth="yes"/>
      <point x="362" y="566"/>
      <point x="398" y="514"/>
      <point x="398" y="348" type="curve" smooth="yes"/>
      <point x="398" y="181"/>
      <point x="362" y="129"/>
      <point x="299" y="129" type="curve" smooth="yes"/>
    </contour>
  </outline>
</glyph>
<glyph name="X.ss01" format="1">
  <advance width="600"/>
  <outline>
    <contour>
      <point x="217" y="371" type="line"/>
      <point x="13" y="0" type="line"/>
      <point x="206" y="0" type="line"/>
      <point x="380" y="332" type="line"/>
    </contour>
    <contour>
      <point x="380" y="332" type="line"/>
      <point x="585" y="700" type="line"/>
      <point x="393" y="700" type="line"/>
      <point x="217" y="371" type="line"/>
    </contour>
    <contour>
      <point x="393" y="0" type="line"/>
      <point x="585" y="0" type="line"/>
      <point x="381" y="371" type="line"/>
      <point x="218" y="332" type="line"/>
    </contour>
    <contour>
      <point x="206" y="700" type="line"/>
      <point x="13" y="700" type="line"/>
      <point x="218" y="332" type="line"/>
      <point x="381" y="371" type="line"/>
    </contour>
  </outline>
</glyph>
<glyph name="a.ss01" format="1">
  <advance width="600"/>
  <outline>
    <contour>
      <point x="524" y="364" type="line"/>
      <point x="524" y="455"/>
      <point x="439" y="512"/>
      <point x="313" y="512" type="curve"/>
      <point x="218" y="512"/>
      <point x="127" y="490"/>
      <point x="63" y="426" type="curve"/>
      <point x="169" y="328" type="line"/>
      <point x="194" y="356"/>
      <point x="241" y="372"/>
      <point x="306" y="372" type="curve"/>
      <point x="380" y="372"/>
      <point x="346" y="353"/>
      <point x="346" y="322" type="curve"/>
    </contour>
    <contour>
      <point x="420" y="-11"/>
      <point x="448" y="76"/>
      <point x="448" y="76" type="curve"/>
      <point x="377" y="191" type="line"/>
      <point x="344" y="137"/>
      <point x="337" y="128"/>
      <point x="296" y="128" type="curve"/>
      <point x="233" y="128"/>
      <point x="212" y="130"/>
      <point x="212" y="153" type="curve"/>
      <point x="33" y="153" type="line"/>
      <point x="33" y="41"/>
      <point x="126" y="-11"/>
      <point x="283" y="-11" type="curve"/>
    </contour>
    <contour>
      <point x="212" y="153" type="line"/>
      <point x="212" y="163"/>
      <point x="213" y="191"/>
      <point x="306" y="191" type="curve"/>
      <point x="303" y="316" type="line"/>
      <point x="118" y="316"/>
      <point x="33" y="264"/>
      <point x="33" y="153" type="curve"/>
    </contour>
    <contour>
      <point x="517" y="-11"/>
      <point x="581" y="-9"/>
      <point x="593" y="-6" type="curve"/>
      <point x="593" y="127" type="line"/>
      <point x="587" y="126"/>
      <point x="567" y="125"/>
      <point x="563" y="125" type="curve"/>
      <point x="531" y="125"/>
      <point x="524" y="141"/>
      <point x="524" y="156" type="curve"/>
      <point x="346" y="122" type="line"/>
      <point x="346" y="36"/>
      <point x="433" y="-11"/>
      <point x="504" y="-11" type="curve"/>
    </contour>
    <contour>
      <point x="472" y="191" type="line"/>
      <point x="472" y="316" type="line"/>
      <point x="303" y="316" type="line"/>
      <point x="306" y="191" type="line"/>
    </contour>
    <contour>
      <point x="524" y="156" type="line"/>
      <point x="524" y="308" type="line"/>
      <point x="346" y="294" type="line"/>
      <point x="346" y="122" type="line"/>
    </contour>
    <contour>
      <point x="524" y="209" type="line"/>
      <point x="524" y="364" type="line"/>
      <point x="346" y="322" type="line"/>
      <point x="346" y="202" type="line"/>
    </contour>
  </outline>
</glyph>
<glyph name="g.ss01" format="1">
  <advance width="600"/>
  <outline>
    <contour>
      <point x="599" y="503" type="line"/>
      <point x="531" y="503"/>
      <point x="439" y="476"/>
      <point x="453" y="367" type="curve"/>
      <point x="558" y="322" type="line"/>
      <point x="554" y="380"/>
      <point x="609" y="386"/>
      <point x="624" y="384" type="curve"/>
    </contour>
    <contour>
      <point x="440" y="149"/>
      <point x="558" y="188"/>
      <point x="558" y="331" type="curve" smooth="yes"/>
      <point x="558" y="473"/>
      <point x="450" y="512"/>
      <point x="301" y="512" type="curve" smooth="yes"/>
      <point x="151" y="512"/>
      <point x="43" y="473"/>
      <point x="43" y="331" type="curve" smooth="yes"/>
      <point x="43" y="188"/>
      <point x="151" y="149"/>
      <point x="301" y="149" type="curve" smooth="yes"/>
    </contour>
    <contour>
      <point x="247" y="288"/>
      <point x="227" y="300"/>
      <point x="227" y="331" type="curve" smooth="yes"/>
      <point x="227" y="361"/>
      <point x="251" y="373"/>
      <point x="301" y="373" type="curve" smooth="yes"/>
      <point x="350" y="373"/>
      <point x="374" y="357"/>
      <point x="374" y="331" type="curve" smooth="yes"/>
      <point x="374" y="300"/>
      <point x="354" y="288"/>
      <point x="301" y="288" type="curve" smooth="yes"/>
    </contour>
    <contour>
      <point x="264" y="-1" type="line"/>
      <point x="288" y="110" type="line"/>
      <point x="293" y="110" type="line" smooth="yes"/>
      <point x="225" y="110"/>
      <point x="234" y="142"/>
      <point x="257" y="170" type="curve"/>
      <point x="142" y="199" type="line"/>
      <point x="117" y="181"/>
      <point x="62" y="165"/>
      <point x="62" y="92" type="curve" smooth="yes"/>
      <point x="62" y="8"/>
      <point x="212" y="-1"/>
      <point x="260" y="-1" type="curve" smooth="yes"/>
    </contour>
    <contour>
      <point x="32" y="-176"/>
      <point x="159" y="-206"/>
      <point x="307" y="-206" type="curve"/>
      <point x="307" y="-71" type="line"/>
      <point x="241" y="-71"/>
      <point x="206" y="-69"/>
      <point x="204" y="-41" type="curve" smooth="yes"/>
      <point x="201" y="-13"/>
      <point x="218" y="-1"/>
      <point x="239" y="17" type="curve"/>
      <point x="102" y="45" type="line"/>
      <point x="77" y="27"/>
      <point x="32" y="4"/>
      <point x="32" y="-69" type="curve" smooth="yes"/>
    </contour>
    <contour>
      <point x="593" y="45"/>
      <point x="560" y="110"/>
      <point x="427" y="110" type="curve"/>
      <point x="381" y="-1" type="line"/>
      <point x="406" y="-1"/>
      <point x="412" y="-11"/>
      <point x="405" y="-43" type="curve" smooth="yes"/>
      <point x="397" y="-75"/>
      <point x="345" y="-71"/>
      <point x="307" y="-71" type="curve"/>
      <point x="307" y="-206" type="line"/>
      <point x="498" y="-206"/>
      <point x="563" y="-130"/>
      <point x="578" y="-43" type="curve" smooth="yes"/>
    </contour>
    <contour>
      <point x="427" y="110" type="line"/>
      <point x="427" y="110"/>
      <point x="426" y="110"/>
      <point x="426" y="110" type="curve" smooth="yes"/>
      <point x="288" y="110" type="line"/>
      <point x="264" y="-1" type="line"/>
      <point x="381" y="-1" type="line"/>
    </contour>
  </outline>
</glyph>
<glyph name="i.ss01" format="1">
  <advance width="600"/>
  <outline>
    <contour>
      <point x="479" y="-11"/>
      <point x="544" y="-1"/>
      <point x="552" y="0" type="curve"/>
      <point x="552" y="142" type="line"/>
      <point x="550" y="140"/>
      <point x="482" y="123"/>
      <point x="440" y="123" type="curve"/>
      <point x="415" y="123"/>
      <point x="396" y="122"/>
      <point x="396" y="185" type="curve"/>
      <point x="217" y="122" type="line"/>
      <point x="217" y="5"/>
      <point x="310" y="-11"/>
      <point x="412" y="-11" type="curve"/>
    </contour>
    <contour>
      <point x="396" y="185" type="line"/>
      <point x="396" y="500" type="line"/>
      <point x="217" y="500" type="line"/>
      <point x="217" y="122" type="line"/>
    </contour>
    <contour>
      <point x="222" y="361" type="line"/>
      <point x="222" y="500" type="line"/>
      <point x="93" y="500" type="line"/>
      <point x="93" y="361" type="line"/>
    </contour>
    <contour>
      <point x="365" y="595"/>
      <point x="411" y="640"/>
      <point x="411" y="698" type="curve" smooth="yes"/>
      <point x="411" y="756"/>
      <point x="365" y="801"/>
      <point x="307" y="801" type="curve" smooth="yes"/>
      <point x="250" y="801"/>
      <point x="204" y="756"/>
      <point x="204" y="698" type="curve" smooth="yes"/>
      <point x="204" y="640"/>
      <point x="250" y="595"/>
      <point x="307" y="595" type="curve" smooth="yes"/>
    </contour>
  </outline>
</glyph>
<glyph name="l.ss01" format="1">
  <advance width="600"/>
  <outline>
    <contour>
      <point x="402" y="185" type="line"/>
      <point x="402" y="800" type="line"/>
      <point x="224" y="800" type="line"/>
      <point x="224" y="122" type="line"/>
    </contour>
    <contour>
      <point x="489" y="-11"/>
      <point x="556" y="0"/>
      <point x="556" y="0" type="curve"/>
      <point x="556" y="142" type="line"/>
      <point x="553" y="140"/>
      <point x="492" y="123"/>
      <point x="440" y="123" type="curve"/>
      <point x="413" y="123"/>
      <point x="402" y="138"/>
      <point x="402" y="185" type="curve"/>
      <point x="224" y="122" type="line"/>
      <point x="224" y="9"/>
      <point x="308" y="-11"/>
      <point x="412" y="-11" type="curve"/>
    </contour>
    <contour>
      <point x="229" y="661" type="line"/>
      <point x="229" y="800" type="line"/>
      <point x="88" y="800" type="line"/>
      <point x="88" y="661" type="line"/>
    </contour>
  </outline>
</glyph>
<glyph name="t.ss01" format="1">
  <advance width="600"/>
  <outline>
    <contour>
      <point x="388" y="0" type="line"/>
      <point x="388" y="680" type="line"/>
      <point x="209" y="680" type="line"/>
      <point x="209" y="0" type="line"/>
    </contour>
    <contour>
      <point x="496" y="0" type="line"/>
      <point x="496" y="139" type="line"/>
      <point x="294" y="139" type="line"/>
      <point x="294" y="0" type="line"/>
    </contour>
    <contour>
      <point x="536" y="361" type="line"/>
      <point x="536" y="500" type="line"/>
      <point x="93" y="500" type="line"/>
      <point x="93" y="361" type="line"/>
    </contour>
  </outline>
</glyph>
<glyph name="three.ss01" format="1">
  <advance width="600"/>
  <outline>
    <contour>
      <point x="447" y="-11"/>
      <point x="560" y="93"/>
      <point x="560" y="222" type="curve" smooth="yes"/>
      <point x="560" y="353"/>
      <point x="462" y="433"/>
      <point x="342" y="410" type="curve"/>
      <point x="256" y="306" type="line"/>
      <point x="358" y="328"/>
      <point x="396" y="260"/>
      <point x="396" y="222" type="curve" smooth="yes"/>
      <point x="396" y="168"/>
      <point x="361" y="129"/>
      <point x="305" y="129" type="curve" smooth="yes"/>
      <point x="238" y="129"/>
      <point x="194" y="164"/>
      <point x="174" y="212" type="curve"/>
      <point x="37" y="139" type="line"/>
      <point x="74" y="64"/>
      <point x="174" y="-11"/>
      <point x="308" y="-11" type="curve" smooth="yes"/>
    </contour>
    <contour>
      <point x="325" y="561" type="line"/>
      <point x="165" y="411" type="line"/>
      <point x="256" y="306" type="line"/>
      <point x="528" y="561" type="line"/>
    </contour>
    <contour>
      <point x="528" y="700" type="line"/>
      <point x="60" y="700" type="line"/>
      <point x="60" y="561" type="line"/>
      <point x="528" y="561" type="line"/>
    </contour>
  </outline>
</glyph>
<glyph name="x.ss01" format="1">
  <advance width="600"/>
  <outline>
    <contour>
      <point x="217" y="265" type="line"/>
      <point x="13" y="0" type="line"/>
      <point x="202" y="0" type="line"/>
      <point x="380" y="237" type="line"/>
    </contour>
    <contour>
      <point x="380" y="237" type="line"/>
      <point x="583" y="500" type="line"/>
      <point x="410" y="500" type="line"/>
      <point x="217" y="265" type="line"/>
    </contour>
    <contour>
      <point x="397" y="0" type="line"/>
      <point x="585" y="0" type="line"/>
      <point x="381" y="265" type="line"/>
      <point x="218" y="237" type="line"/>
    </contour>
    <contour>
      <point x="202" y="500" type="line"/>
      <point x="13" y="500" type="line"/>
      <point x="218" y="237" type="line"/>
      <point x="381" y="265" type="line"/>
    </contour>
  </outline>
</glyph>
